<svg width="206" height="164" viewBox="0 0 206 164" fill="none" xmlns="http://www.w3.org/2000/svg">
<path d="M109.988 101.113H106.511V90.682H109.988V94.1591H118.681V97.6363H109.988V101.113ZM103.034 97.6363H87.3867V94.1591H103.034V97.6363ZM97.8181 90.682H94.341V87.2048H87.3867V83.7277H94.341V80.2506H97.8181V90.682ZM118.681 87.2048H101.295V83.7277H118.681V87.2048ZM104.599 76.7734H101.121C101.031 76.7668 100.947 76.7281 100.883 76.6642C100.819 76.6004 100.78 76.5157 100.774 76.4257L100.426 74.1656C100.076 74.0318 99.7513 73.8415 99.4635 73.6023C99.3293 73.5028 99.1902 73.3999 99.0351 73.2963L96.9489 73.9917C96.9294 74.013 96.9058 74.0302 96.8795 74.0422C96.8532 74.0541 96.8247 74.0606 96.7959 74.0612C96.6735 74.0612 96.5483 73.9368 96.428 73.8165L94.6887 70.8623C94.6481 70.832 94.6152 70.7926 94.5925 70.7473C94.5698 70.7021 94.558 70.6521 94.558 70.6015C94.558 70.5508 94.5698 70.5009 94.5925 70.4556C94.6152 70.4103 94.6481 70.371 94.6887 70.3407L96.775 68.776V67.0374L94.8626 65.6466C94.7778 65.5705 94.7047 65.4824 94.6456 65.3851C94.6218 65.3434 94.613 65.2947 94.6209 65.2474C94.6287 65.2 94.6527 65.1567 94.6887 65.125L96.4273 62.1694C96.4961 62.1037 96.5787 62.0541 96.669 62.0242C96.7593 61.9942 96.8551 61.9847 96.9496 61.9962L99.0358 62.8655C99.5358 62.5386 100.058 62.2479 100.6 61.9956L100.948 59.7354C100.953 59.645 100.992 59.5598 101.056 59.4958C101.12 59.4317 101.205 59.3933 101.295 59.3877H104.772C104.863 59.3933 104.948 59.4317 105.012 59.4958C105.076 59.5598 105.115 59.645 105.12 59.7354L105.468 61.9956C105.918 62.1187 106.337 62.3347 106.698 62.6298C106.804 62.707 106.914 62.7863 107.033 62.8648L109.293 62.1694C109.312 62.1481 109.336 62.1309 109.362 62.119C109.388 62.107 109.417 62.1005 109.446 62.0999C109.57 62.0999 109.694 62.225 109.814 62.3454L111.553 65.3009C111.564 65.3954 111.555 65.4913 111.525 65.5816C111.495 65.672 111.445 65.7545 111.379 65.8232L109.467 67.214V68.9526L111.379 70.3435C111.553 70.5173 111.553 70.6912 111.379 71.0389L109.64 73.9917C109.572 74.0576 109.489 74.1074 109.399 74.1375C109.309 74.1675 109.213 74.1771 109.118 74.1656L107.032 73.2963C106.695 73.5096 106.341 73.6938 105.973 73.847C105.759 73.943 105.539 74.0425 105.293 74.1656L104.946 76.4257C104.939 76.5156 104.9 76.6001 104.837 76.6639C104.773 76.7276 104.688 76.7665 104.599 76.7734ZM103.034 65.4727C102.348 65.49 101.694 65.7703 101.209 66.2556C100.724 66.741 100.443 67.3943 100.426 68.0806C100.426 68.7722 100.701 69.4355 101.19 69.9246C101.679 70.4137 102.342 70.6884 103.034 70.6884C103.726 70.6884 104.389 70.4137 104.878 69.9246C105.367 69.4355 105.642 68.7722 105.642 68.0806C105.624 67.3943 105.344 66.741 104.859 66.2556C104.373 65.7703 103.72 65.49 103.034 65.4727Z" fill="#1271FF"/>
<path d="M200.298 76.2385L169.004 93.0892V59.3877L200.298 76.2385Z" fill="#1271FF"/>
<path d="M29.9877 95.6283H7.63468C6.4494 95.6269 5.31306 95.1555 4.47495 94.3174C3.63683 93.4793 3.16539 92.3429 3.16406 91.1577L3.16406 68.8046C3.16539 67.6193 3.63683 66.483 4.47495 65.6449C5.31306 64.8068 6.4494 64.3353 7.63468 64.334H29.9877C31.173 64.3353 32.3094 64.8068 33.1475 65.6449C33.9856 66.483 34.457 67.6193 34.4584 68.8046V91.1577C34.457 92.3429 33.9856 93.4793 33.1475 94.3174C32.3094 95.1555 31.173 95.6269 29.9877 95.6283ZM9.86998 77.7458V82.2164H16.5759V88.9224H21.0465V82.2164H27.7524V77.7458H21.0465V71.0399H16.5759V77.7458H9.86998Z" fill="#1271FF"/>
<path d="M190.005 14.8076H171.578V26.289H196.779V19.9741C195.191 19.7858 193.683 19.171 192.416 18.1948C191.283 17.341 190.441 16.158 190.005 14.8076V14.8076Z" fill="#1271FF"/>
<path d="M186.161 11.3633H176.574V13.7743H186.161V11.3633Z" fill="#1271FF"/>
<path d="M167.159 17.1616H164.059V23.8781H167.159V17.1616Z" fill="#1271FF"/>
<path d="M170.544 12.1094H168.133V28.9295H170.544V12.1094Z" fill="#1271FF"/>
<path d="M194.312 27.3218H192.418V29.6178H194.312V27.3218Z" fill="#1271FF"/>
<path d="M197.757 18.3673C196.372 18.3694 195.017 17.9601 193.865 17.1912C192.713 16.4223 191.815 15.3284 191.285 14.0484C190.755 12.7684 190.618 11.36 190.89 10.0017C191.162 8.64351 191.832 7.39671 192.813 6.41951C193.461 5.76373 194.232 5.24252 195.082 4.88587C195.932 4.52921 196.845 4.34416 197.766 4.34134C198.688 4.33853 199.601 4.51801 200.454 4.86947C201.306 5.22093 202.08 5.73742 202.732 6.38923C203.384 7.04104 203.9 7.81531 204.252 8.66748C204.603 9.51965 204.783 10.4329 204.78 11.3547C204.777 12.2765 204.592 13.1886 204.235 14.0386C203.879 14.8887 203.357 15.6597 202.702 16.3076C202.054 16.9608 201.284 17.4792 200.435 17.8327C199.587 18.1863 198.676 18.368 197.757 18.3673ZM194.428 10.7897L193.681 11.6501L197.241 14.75L201.948 9.29693L201.03 8.55019L197.126 13.1429L194.428 10.789V10.7897Z" fill="#1271FF"/>
<path d="M190.826 139.104H172.398V150.585H197.599V144.271C196.011 144.082 194.504 143.467 193.237 142.491C192.103 141.637 191.261 140.454 190.826 139.104V139.104Z" fill="#1271FF"/>
<path d="M186.982 135.66H177.395V138.071H186.982V135.66Z" fill="#1271FF"/>
<path d="M167.979 141.458H164.879V148.174H167.979V141.458Z" fill="#1271FF"/>
<path d="M171.364 136.406H168.953V153.226H171.364V136.406Z" fill="#1271FF"/>
<path d="M195.133 151.618H193.238V153.914H195.133V151.618Z" fill="#1271FF"/>
<path d="M198.577 142.664C197.192 142.666 195.837 142.256 194.685 141.488C193.533 140.719 192.635 139.625 192.105 138.345C191.576 137.065 191.438 135.656 191.71 134.298C191.983 132.94 192.652 131.693 193.634 130.716C194.282 130.06 195.053 129.539 195.903 129.182C196.753 128.826 197.665 128.641 198.587 128.638C199.508 128.635 200.422 128.814 201.274 129.166C202.126 129.517 202.9 130.034 203.552 130.686C204.204 131.337 204.72 132.112 205.072 132.964C205.423 133.816 205.603 134.729 205.6 135.651C205.597 136.573 205.412 137.485 205.055 138.335C204.699 139.185 204.178 139.956 203.522 140.604C202.875 141.257 202.105 141.776 201.256 142.129C200.407 142.483 199.497 142.664 198.577 142.664ZM195.248 135.086L194.502 135.946L198.061 139.046L202.768 133.593L201.85 132.847L197.946 137.439L195.248 135.085V135.086Z" fill="#1271FF"/>
<path d="M103.212 35.3915L95.0837 26.7118H101.008V21.9585H96.0481C94.669 21.9543 93.3154 21.5873 92.123 20.8945C90.9306 20.2017 89.9414 19.2074 89.2547 18.0115C88.5681 16.8155 88.2081 15.46 88.211 14.0809C88.2138 12.7019 88.5794 11.3478 89.271 10.1547C89.7874 9.26355 90.4759 8.48396 91.2964 7.86131C92.1169 7.23865 93.0531 6.78537 94.0503 6.52783C94.7955 4.84093 96.0147 3.40679 97.5596 2.39972C99.1045 1.39264 100.909 0.855989 102.753 0.85498C104.326 0.859497 105.873 1.24904 107.261 1.98958C108.648 2.73012 109.834 3.79913 110.713 5.10325C111.316 6.00101 111.762 6.99538 112.03 8.04335C113.756 8.23924 115.348 9.0675 116.499 10.3683C117.381 11.3668 117.956 12.5982 118.157 13.9151C118.357 15.2321 118.174 16.5788 117.629 17.7943C117.084 19.0098 116.2 20.0426 115.084 20.7691C113.967 21.4956 112.665 21.8851 111.333 21.891H111.207H105.42V26.7131H111.344L103.216 35.3929L103.212 35.3915ZM102.868 11.1433C102.52 11.1388 102.176 11.2088 101.857 11.3484C101.539 11.488 101.254 11.694 101.022 11.9527C100.554 12.4921 100.303 13.1852 100.316 13.8988C100.264 14.615 100.489 15.3238 100.944 15.8793C101.169 16.0996 101.438 16.2702 101.733 16.38C102.028 16.4898 102.343 16.5363 102.658 16.5165C102.997 16.5251 103.335 16.4633 103.65 16.335C103.964 16.2067 104.249 16.0147 104.485 15.7711C104.74 15.4917 104.936 15.1633 105.06 14.8058C105.184 14.4484 105.234 14.0694 105.207 13.6921C105.21 12.0484 104.378 11.144 102.868 11.144V11.1433ZM98.5969 11.1433C98.2377 11.1218 97.8784 11.182 97.5458 11.3192C97.2132 11.4564 96.9159 11.6671 96.6763 11.9355C96.2342 12.5178 96.0117 13.2374 96.0481 13.9676C96.0481 15.6134 96.8127 16.4476 98.3213 16.4476C98.7897 16.4692 99.2577 16.399 99.6991 16.2409L99.5613 15.3454C99.211 15.4858 98.8365 15.5561 98.4591 15.552C97.5905 15.552 97.1503 14.9954 97.1503 13.8988C97.1503 12.7277 97.6029 12.1077 98.4591 12.1077C98.8372 12.0955 99.2133 12.1661 99.5613 12.3143L99.768 11.3499C99.3935 11.2095 98.9962 11.1396 98.5962 11.144L98.5969 11.1433ZM107.759 10.3166C107.907 10.3028 108.056 10.3218 108.196 10.3724C108.336 10.4229 108.464 10.5036 108.569 10.6089C108.674 10.7141 108.755 10.8412 108.805 10.9812C108.856 11.1212 108.875 11.2706 108.861 11.4188C108.861 12.1511 108.464 12.8544 107.346 14.1054L106.174 15.4832V16.3787H110.308V15.2765H110.279C109.675 15.2765 109.132 15.2978 108.654 15.3164C108.263 15.3316 107.926 15.3454 107.621 15.3454L108.448 14.4498C109.606 13.0866 110.101 12.118 110.101 11.2122C110.111 10.9597 110.071 10.7077 109.982 10.4711C109.893 10.2345 109.758 10.018 109.584 9.83441C109.375 9.64456 109.13 9.49809 108.864 9.40349C108.598 9.3089 108.316 9.26805 108.034 9.28332C107.414 9.29077 106.803 9.43175 106.243 9.69664L106.449 10.7299C106.847 10.4901 107.296 10.3484 107.759 10.3166Z" fill="#1271FF"/>
<path d="M102.801 12.1069C102.112 12.1069 101.492 12.5891 101.492 13.8291C101.492 15.0002 101.974 15.6202 102.801 15.6202C103.49 15.6202 104.11 15.0691 104.11 13.898C104.11 12.7269 103.697 12.1069 102.801 12.1069Z" fill="#1271FF"/>
<path d="M103.212 163.998L95.0837 155.319H101.008V150.565H96.0481C94.669 150.561 93.3154 150.194 92.123 149.501C90.9306 148.809 89.9414 147.814 89.2547 146.618C88.5681 145.422 88.2081 144.067 88.211 142.688C88.2138 141.309 88.5794 139.955 89.271 138.762C89.7874 137.87 90.4759 137.091 91.2964 136.468C92.1169 135.846 93.0531 135.392 94.0503 135.135C94.7955 133.448 96.0147 132.014 97.5596 131.007C99.1045 130 100.909 129.463 102.753 129.462C104.326 129.466 105.873 129.856 107.261 130.597C108.648 131.337 109.834 132.406 110.713 133.71C111.316 134.608 111.762 135.602 112.03 136.65C113.756 136.846 115.348 137.674 116.499 138.975C117.381 139.974 117.956 141.205 118.157 142.522C118.357 143.839 118.174 145.186 117.629 146.401C117.084 147.617 116.2 148.65 115.084 149.376C113.967 150.103 112.665 150.492 111.333 150.498H111.207H105.42V155.32H111.344L103.216 164L103.212 163.998ZM102.868 139.75C102.52 139.746 102.176 139.816 101.857 139.955C101.539 140.095 101.254 140.301 101.022 140.56C100.554 141.099 100.303 141.792 100.316 142.506C100.264 143.222 100.489 143.931 100.944 144.486C101.169 144.707 101.438 144.877 101.733 144.987C102.028 145.097 102.343 145.143 102.658 145.123C102.997 145.132 103.335 145.07 103.65 144.942C103.964 144.814 104.249 144.622 104.485 144.378C104.74 144.099 104.936 143.77 105.06 143.413C105.184 143.055 105.234 142.676 105.207 142.299C105.21 140.655 104.378 139.751 102.868 139.751V139.75ZM98.5969 139.75C98.2377 139.729 97.8784 139.789 97.5458 139.926C97.2132 140.063 96.9159 140.274 96.6763 140.542C96.2342 141.125 96.0117 141.844 96.0481 142.575C96.0481 144.22 96.8127 145.055 98.3213 145.055C98.7897 145.076 99.2577 145.006 99.6991 144.848L99.5613 143.952C99.211 144.093 98.8365 144.163 98.4591 144.159C97.5905 144.159 97.1503 143.602 97.1503 142.506C97.1503 141.335 97.6029 140.715 98.4591 140.715C98.8372 140.702 99.2133 140.773 99.5613 140.921L99.768 139.957C99.3935 139.816 98.9962 139.747 98.5962 139.751L98.5969 139.75ZM107.759 138.924C107.907 138.91 108.056 138.929 108.196 138.979C108.336 139.03 108.464 139.111 108.569 139.216C108.674 139.321 108.755 139.448 108.805 139.588C108.856 139.728 108.875 139.878 108.861 140.026C108.861 140.758 108.464 141.461 107.346 142.712L106.174 144.09V144.986H110.308V143.883H110.279C109.675 143.883 109.132 143.905 108.654 143.923C108.263 143.939 107.926 143.952 107.621 143.952L108.448 143.057C109.606 141.694 110.101 140.725 110.101 139.819C110.111 139.567 110.071 139.315 109.982 139.078C109.893 138.841 109.758 138.625 109.584 138.441C109.375 138.251 109.13 138.105 108.864 138.01C108.598 137.916 108.316 137.875 108.034 137.89C107.414 137.898 106.803 138.039 106.243 138.304L106.449 139.337C106.847 139.097 107.296 138.955 107.759 138.924Z" fill="#1271FF"/>
<path d="M102.801 140.714C102.112 140.714 101.492 141.196 101.492 142.436C101.492 143.607 101.974 144.227 102.801 144.227C103.49 144.227 104.11 143.676 104.11 142.505C104.11 141.334 103.697 140.714 102.801 140.714Z" fill="#1271FF"/>
<path d="M27.0714 33.5459C26.903 33.5462 26.7391 33.4911 26.605 33.3892C26.471 33.2872 26.3742 33.1441 26.3295 32.9817L25.7095 30.984C24.9086 30.8998 24.1217 30.7146 23.3673 30.4329L21.8518 31.9484C21.7013 32.0909 21.501 32.1685 21.2938 32.1647C21.1235 32.1671 20.9569 32.1155 20.8178 32.0173L19.9911 31.3973L19.1645 30.7773C19.031 30.6601 18.9388 30.503 18.9016 30.3293C18.8644 30.1556 18.8841 29.9745 18.9578 29.8129L19.9223 27.9529C19.3752 27.3152 18.9334 26.5943 18.6134 25.8174L16.4779 25.7486C16.291 25.7404 16.1129 25.667 15.9745 25.5411C15.836 25.4153 15.7461 25.245 15.7201 25.0597L15.5824 24.0264L15.4446 22.9931C15.4057 22.8017 15.441 22.6028 15.5433 22.4365C15.6456 22.2702 15.8074 22.149 15.9957 22.0975L17.9934 21.4087C18.1275 20.6105 18.335 19.8265 18.6134 19.0665L17.1668 17.551C17.0393 17.4124 16.963 17.2344 16.9505 17.0465C16.9379 16.8586 16.99 16.672 17.0979 16.5177L17.7179 15.691L18.3379 14.8644C18.4106 14.7744 18.5033 14.7025 18.6087 14.6547C18.714 14.6069 18.8291 14.5843 18.9448 14.5888C19.067 14.5891 19.188 14.6125 19.3016 14.6577L21.1615 15.6221C21.7826 15.1051 22.4797 14.6869 23.2282 14.3822L23.297 12.2467C23.3052 12.0598 23.3786 11.8817 23.5044 11.7432C23.6303 11.6048 23.8006 11.5148 23.9859 11.4889L25.0192 11.2823L26.0525 11.1445C26.1033 11.1359 26.1547 11.1315 26.2061 11.1314C26.3746 11.1311 26.5384 11.1862 26.6725 11.2881C26.8065 11.39 26.9033 11.5332 26.9481 11.6956L27.6369 13.6933C28.4352 13.8269 29.2193 14.0344 29.9791 14.3133L31.4946 12.8667C31.6448 12.7243 31.845 12.6466 32.0519 12.6504C32.2221 12.6481 32.3887 12.6997 32.5279 12.7978L33.2168 13.5555L34.0434 14.1755C34.1769 14.2927 34.2691 14.4498 34.3064 14.6235C34.3436 14.7972 34.3238 14.9783 34.2501 15.1399L33.2857 16.9999C33.8013 17.5966 34.2198 18.2707 34.5256 18.9976L36.6611 19.0665C36.848 19.0748 37.0261 19.1482 37.1645 19.2741C37.3029 19.3999 37.3929 19.5702 37.4189 19.7554L37.5567 20.7887L37.6944 21.822C37.7335 22.0133 37.6983 22.2124 37.5959 22.3787C37.4936 22.545 37.3318 22.6662 37.1433 22.7175L35.1456 23.3375C35.0617 24.1384 34.8765 24.9254 34.5945 25.6797L36.11 27.1952C36.2355 27.3349 36.3104 27.5126 36.3229 27.6999C36.3354 27.8873 36.2847 28.0734 36.1789 28.2285L35.5589 29.0551L34.939 29.8818C34.8661 29.9718 34.7733 30.0436 34.6678 30.0915C34.5623 30.1393 34.4471 30.1619 34.3314 30.1573C34.2089 30.1571 34.0876 30.1337 33.9739 30.0884L32.1139 29.124C31.4759 29.6168 30.7823 30.0329 30.0473 30.364L29.9784 32.4995C29.9702 32.6864 29.8968 32.8645 29.771 33.0029C29.6452 33.1414 29.4748 33.2313 29.2895 33.2572L28.2562 33.395L27.2229 33.5328C27.1728 33.5413 27.1222 33.5456 27.0714 33.5459ZM26.658 17.5103C25.9038 17.5123 25.1597 17.6845 24.4812 18.0139C23.7766 18.3582 23.1606 18.8597 22.6805 19.4798C21.9192 20.5307 21.6036 21.8396 21.8022 23.1219C21.9932 24.3926 22.6807 25.5355 23.7138 26.2996C24.5667 26.9192 25.5935 27.2536 26.6477 27.2551C27.4076 27.2599 28.1574 27.0816 28.8338 26.7353C29.5102 26.389 30.0932 25.8849 30.5336 25.2657C31.2944 24.2149 31.6098 22.9063 31.4113 21.6243C31.2202 20.3536 30.5327 19.2107 29.4996 18.4465C28.6784 17.8359 27.6814 17.5077 26.658 17.511V17.5103ZM26.5588 25.2216C25.9519 25.2233 25.362 25.0207 24.8842 24.6464C24.399 24.2863 24.0393 23.7827 23.8562 23.2069C23.6731 22.6311 23.6758 22.0123 23.8639 21.4381C24.0521 20.8639 24.4161 20.3634 24.9045 20.0077C25.3929 19.6519 25.9808 19.4588 26.585 19.4557C27.192 19.4541 27.7818 19.6567 28.2597 20.0309C28.5752 20.2587 28.8415 20.5477 29.0428 20.8808C29.244 21.2139 29.3759 21.5841 29.4307 21.9694C29.4821 22.3317 29.4598 22.7007 29.3651 23.0541C29.2704 23.4076 29.1053 23.7383 28.8797 24.0264C28.6128 24.3927 28.2639 24.6916 27.861 24.8991C27.458 25.1066 27.0121 25.2171 26.5588 25.2216ZM7.94693 18.8771C7.8975 18.8773 7.84822 18.8716 7.8002 18.8598L6.97356 18.6532L6.14691 18.4465C6.00137 18.4017 5.87494 18.3096 5.78761 18.1848C5.70028 18.0601 5.65703 17.9097 5.6647 17.7576L5.80247 16.0355C5.18419 15.7499 4.62376 15.3529 4.14918 14.8644L2.49589 15.4844C2.40843 15.5202 2.31485 15.5387 2.22035 15.5388C2.10695 15.5406 1.9953 15.5107 1.89794 15.4526C1.80059 15.3944 1.72139 15.3102 1.66925 15.2095L1.25593 14.4518L0.842604 13.694C0.743181 13.5566 0.701891 13.3856 0.727679 13.218C0.753467 13.0503 0.844255 12.8996 0.980378 12.7985L2.28923 11.6274C2.03975 10.9678 1.92271 10.2656 1.9448 9.56077L0.360394 8.8719C0.228971 8.7996 0.124433 8.68676 0.0623639 8.55021C0.000294343 8.41366 -0.015983 8.2607 0.0159584 8.11415L0.22262 7.2875L0.429281 6.39197C0.474131 6.24643 0.566218 6.12 0.690979 6.03267C0.81574 5.94534 0.966055 5.90209 1.11815 5.90976L2.77144 6.04753C3.05683 5.42912 3.45383 4.86865 3.94252 4.39424L3.32254 2.74095C3.28246 2.59132 3.28721 2.43321 3.33619 2.28626C3.38518 2.1393 3.47624 2.00996 3.59809 1.91431L4.35585 1.50098L5.1136 1.08766C5.21914 1.0072 5.34807 0.963421 5.48077 0.962977C5.65344 0.964493 5.81855 1.03405 5.94025 1.15655L7.11133 2.4654L7.28355 2.43096C7.88232 2.28912 8.49397 2.20857 9.10906 2.19054L9.79793 0.606141C9.84906 0.475104 9.93961 0.363173 10.0571 0.285805C10.1746 0.208436 10.3132 0.169447 10.4537 0.174219C10.5111 0.174344 10.5683 0.180113 10.6246 0.191441L11.4512 0.398102L12.3467 0.673651C12.4923 0.718501 12.6187 0.810588 12.706 0.935349C12.7934 1.06011 12.8366 1.21042 12.829 1.36252L12.6912 3.0847C13.3093 3.37052 13.8697 3.76747 14.3445 4.25578L15.9978 3.6358C16.0853 3.60031 16.1789 3.58207 16.2733 3.58206C16.3868 3.58032 16.4985 3.61029 16.5958 3.66858C16.6932 3.72688 16.7724 3.81119 16.8244 3.91203L17.2377 4.66979L17.6511 5.42755C17.7489 5.56548 17.7892 5.73607 17.7635 5.90322C17.7378 6.07037 17.6481 6.22095 17.5133 6.32308L16.2044 7.49416C16.4184 8.13912 16.5345 8.81251 16.5489 9.49189L18.2022 10.1808C18.3336 10.2531 18.4381 10.3659 18.5002 10.5024C18.5623 10.639 18.5785 10.792 18.5466 10.9385L18.3399 11.7652L18.1333 12.5918C18.0878 12.737 17.9956 12.863 17.8709 12.9502C17.7463 13.0374 17.5963 13.081 17.4444 13.074L15.7222 12.9362C15.4364 13.5544 15.0394 14.1148 14.5511 14.5895L15.1022 16.3117C15.1692 16.4588 15.178 16.6258 15.1269 16.7792C15.0758 16.9325 14.9685 17.0608 14.8267 17.1384L14.0689 17.5517L13.3112 17.965C13.1915 18.041 13.0533 18.0827 12.9116 18.0856C12.8143 18.085 12.7184 18.0613 12.6321 18.0164C12.5457 17.9715 12.4713 17.9066 12.4149 17.8272L11.2439 16.5184C10.5988 16.7319 9.92548 16.848 9.24614 16.8628L8.55727 18.5161C8.49791 18.6261 8.40975 18.7178 8.30224 18.7815C8.19472 18.8452 8.0719 18.8785 7.94693 18.8778V18.8771ZM9.25578 5.98553C8.59378 5.98748 7.94567 6.17558 7.3855 6.52837C6.61571 7.0289 6.06753 7.80593 5.85414 8.699C5.74455 9.13602 5.72615 9.59094 5.80011 10.0354C5.87406 10.4798 6.03878 10.9043 6.284 11.2823C6.60174 11.7727 7.03716 12.1757 7.55058 12.4548C8.06399 12.7338 8.63907 12.8799 9.22341 12.8798C9.86123 12.8777 10.4871 12.7066 11.0372 12.3838C11.7987 11.8917 12.3391 11.123 12.5445 10.24C12.7488 9.35072 12.604 8.41695 12.1401 7.63125C11.8477 7.12694 11.427 6.70907 10.9208 6.42012C10.4145 6.13117 9.84075 5.98146 9.25785 5.98622L9.25578 5.98553Z" fill="#1271FF"/>
<path d="M27.0714 157.888C26.903 157.888 26.7391 157.833 26.605 157.731C26.471 157.629 26.3742 157.486 26.3295 157.323L25.7095 155.326C24.9086 155.242 24.1217 155.056 23.3673 154.775L21.8518 156.29C21.7013 156.433 21.501 156.51 21.2938 156.506C21.1235 156.509 20.9569 156.457 20.8178 156.359L19.9911 155.739L19.1645 155.119C19.031 155.002 18.9388 154.845 18.9016 154.671C18.8644 154.497 18.8841 154.316 18.9578 154.155L19.9223 152.295C19.3752 151.657 18.9334 150.936 18.6134 150.159L16.4779 150.09C16.291 150.082 16.1129 150.009 15.9745 149.883C15.836 149.757 15.7461 149.587 15.7201 149.401L15.5824 148.368L15.4446 147.335C15.4057 147.144 15.441 146.945 15.5433 146.778C15.6456 146.612 15.8074 146.491 15.9957 146.439L17.9934 145.75C18.1275 144.952 18.335 144.168 18.6134 143.408L17.1668 141.893C17.0393 141.754 16.963 141.576 16.9505 141.388C16.9379 141.2 16.99 141.014 17.0979 140.859L17.7179 140.033L18.3379 139.206C18.4106 139.116 18.5033 139.044 18.6087 138.997C18.714 138.949 18.8291 138.926 18.9448 138.931C19.067 138.931 19.188 138.954 19.3016 139L21.1615 139.964C21.7826 139.447 22.4797 139.029 23.2282 138.724L23.297 136.588C23.3052 136.402 23.3786 136.223 23.5044 136.085C23.6303 135.947 23.8006 135.857 23.9859 135.831L25.0192 135.624L26.0525 135.486C26.1033 135.478 26.1547 135.473 26.2061 135.473C26.3746 135.473 26.5384 135.528 26.6725 135.63C26.8065 135.732 26.9033 135.875 26.9481 136.037L27.6369 138.035C28.4352 138.169 29.2193 138.376 29.9791 138.655L31.4946 137.208C31.6448 137.066 31.845 136.988 32.0519 136.992C32.2221 136.99 32.3887 137.042 32.5279 137.14L33.2168 137.897L34.0434 138.517C34.1769 138.635 34.2691 138.792 34.3064 138.965C34.3436 139.139 34.3238 139.32 34.2501 139.482L33.2857 141.342C33.8013 141.938 34.2198 142.613 34.5256 143.339L36.6611 143.408C36.848 143.417 37.0261 143.49 37.1645 143.616C37.3029 143.742 37.3929 143.912 37.4189 144.097L37.5567 145.13L37.6944 146.164C37.7335 146.355 37.6983 146.554 37.5959 146.721C37.4936 146.887 37.3318 147.008 37.1433 147.059L35.1456 147.679C35.0617 148.48 34.8765 149.267 34.5945 150.021L36.11 151.537C36.2355 151.677 36.3104 151.854 36.3229 152.042C36.3354 152.229 36.2847 152.415 36.1789 152.57L35.5589 153.397L34.939 154.224C34.8661 154.314 34.7733 154.385 34.6678 154.433C34.5623 154.481 34.4471 154.504 34.3314 154.499C34.2089 154.499 34.0876 154.475 33.9739 154.43L32.1139 153.466C31.4759 153.959 30.7823 154.375 30.0473 154.706L29.9784 156.841C29.9702 157.028 29.8968 157.206 29.771 157.345C29.6452 157.483 29.4748 157.573 29.2895 157.599L28.2562 157.737L27.2229 157.875C27.1728 157.883 27.1222 157.887 27.0714 157.888ZM26.658 141.852C25.9038 141.854 25.1597 142.026 24.4812 142.356C23.7766 142.7 23.1606 143.202 22.6805 143.822C21.9192 144.872 21.6036 146.181 21.8022 147.464C21.9932 148.734 22.6807 149.877 23.7138 150.641C24.5667 151.261 25.5935 151.595 26.6477 151.597C27.4076 151.602 28.1574 151.423 28.8338 151.077C29.5102 150.731 30.0932 150.227 30.5336 149.607C31.2944 148.557 31.6098 147.248 31.4113 145.966C31.2202 144.695 30.5327 143.552 29.4996 142.788C28.6784 142.178 27.6814 141.849 26.658 141.853V141.852ZM26.5588 149.563C25.9519 149.565 25.362 149.362 24.8842 148.988C24.399 148.628 24.0393 148.125 23.8562 147.549C23.6731 146.973 23.6758 146.354 23.8639 145.78C24.0521 145.206 24.4161 144.705 24.9045 144.349C25.3929 143.994 25.9808 143.801 26.585 143.798C27.192 143.796 27.7818 143.998 28.2597 144.373C28.5752 144.6 28.8415 144.89 29.0428 145.223C29.244 145.556 29.3759 145.926 29.4307 146.311C29.4821 146.674 29.4598 147.042 29.3651 147.396C29.2704 147.749 29.1053 148.08 28.8797 148.368C28.6128 148.735 28.2639 149.033 27.861 149.241C27.458 149.448 27.0121 149.559 26.5588 149.563ZM7.94693 143.219C7.8975 143.219 7.84822 143.213 7.8002 143.202L6.97356 142.995L6.14691 142.788C6.00137 142.743 5.87494 142.651 5.78761 142.527C5.70028 142.402 5.65703 142.252 5.6647 142.099L5.80247 140.377C5.18419 140.092 4.62376 139.695 4.14918 139.206L2.49589 139.826C2.40843 139.862 2.31485 139.88 2.22035 139.881C2.10695 139.882 1.9953 139.853 1.89794 139.794C1.80059 139.736 1.72139 139.652 1.66925 139.551L1.25593 138.794L0.842604 138.036C0.743181 137.898 0.701891 137.727 0.727679 137.56C0.753467 137.392 0.844255 137.241 0.980378 137.14L2.28923 135.969C2.03975 135.31 1.92271 134.607 1.9448 133.903L0.360394 133.214C0.228971 133.141 0.124433 133.029 0.0623639 132.892C0.000294343 132.755 -0.015983 132.602 0.0159584 132.456L0.22262 131.629L0.429281 130.734C0.474131 130.588 0.566218 130.462 0.690979 130.374C0.81574 130.287 0.966055 130.244 1.11815 130.252L2.77144 130.389C3.05683 129.771 3.45383 129.21 3.94252 128.736L3.32254 127.083C3.28246 126.933 3.28721 126.775 3.33619 126.628C3.38518 126.481 3.47624 126.352 3.59809 126.256L4.35585 125.843L5.1136 125.429C5.21914 125.349 5.34807 125.305 5.48077 125.305C5.65344 125.306 5.81855 125.376 5.94025 125.498L7.11133 126.807L7.28355 126.773C7.88232 126.631 8.49397 126.55 9.10906 126.532L9.79793 124.948C9.84906 124.817 9.93961 124.705 10.0571 124.628C10.1746 124.55 10.3132 124.511 10.4537 124.516C10.5111 124.516 10.5683 124.522 10.6246 124.533L11.4512 124.74L12.3467 125.015C12.4923 125.06 12.6187 125.152 12.706 125.277C12.7934 125.402 12.8366 125.552 12.829 125.704L12.6912 127.426C13.3093 127.712 13.8697 128.109 14.3445 128.598L15.9978 127.978C16.0853 127.942 16.1789 127.924 16.2733 127.924C16.3868 127.922 16.4985 127.952 16.5958 128.01C16.6932 128.069 16.7724 128.153 16.8244 128.254L17.2377 129.012L17.6511 129.769C17.7489 129.907 17.7892 130.078 17.7635 130.245C17.7378 130.412 17.6481 130.563 17.5133 130.665L16.2044 131.836C16.4184 132.481 16.5345 133.154 16.5489 133.834L18.2022 134.523C18.3336 134.595 18.4381 134.708 18.5002 134.844C18.5623 134.981 18.5785 135.134 18.5466 135.28L18.3399 136.107L18.1333 136.934C18.0878 137.079 17.9956 137.205 17.8709 137.292C17.7463 137.379 17.5963 137.423 17.4444 137.416L15.7222 137.278C15.4364 137.896 15.0394 138.457 14.5511 138.931L15.1022 140.654C15.1692 140.801 15.178 140.968 15.1269 141.121C15.0758 141.274 14.9685 141.403 14.8267 141.48L14.0689 141.893L13.3112 142.307C13.1915 142.383 13.0533 142.424 12.9116 142.427C12.8143 142.427 12.7184 142.403 12.6321 142.358C12.5457 142.313 12.4713 142.248 12.4149 142.169L11.2439 140.86C10.5988 141.074 9.92548 141.19 9.24614 141.205L8.55727 142.858C8.49791 142.968 8.40975 143.06 8.30224 143.123C8.19472 143.187 8.0719 143.22 7.94693 143.22V143.219ZM9.25578 130.327C8.59378 130.329 7.94567 130.517 7.3855 130.87C6.61571 131.371 6.06753 132.148 5.85414 133.041C5.74455 133.478 5.72615 133.933 5.80011 134.377C5.87406 134.822 6.03878 135.246 6.284 135.624C6.60174 136.114 7.03716 136.518 7.55058 136.797C8.06399 137.076 8.63907 137.222 9.22341 137.222C9.86123 137.22 10.4871 137.048 11.0372 136.726C11.7987 136.234 12.3391 135.465 12.5445 134.582C12.7488 133.693 12.604 132.759 12.1401 131.973C11.8477 131.469 11.427 131.051 10.9208 130.762C10.4145 130.473 9.84075 130.323 9.25785 130.328L9.25578 130.327Z" fill="#1271FF"/>
</svg>
