<svg width="62" height="63" viewBox="0 0 62 63" fill="none" xmlns="http://www.w3.org/2000/svg">
<path d="M37.6799 55.0687L37.6089 55.1948L35.2336 61.4091C35.2138 61.487 35.2138 61.5686 35.2336 61.6466C35.2493 61.7782 35.3145 61.899 35.416 61.9843C35.5027 62.0456 35.6064 62.0784 35.7126 62.0784C35.8188 62.0784 35.9224 62.0456 36.0092 61.9843L41.5503 58.2693L41.6628 58.1668L42.3912 57.2482L38.4949 54.1265L37.6799 55.0687Z" fill="url(#paint0_radial)"/>
<path d="M60.0628 35.027L61.2505 33.5388C61.7424 32.994 62.0102 32.2833 61.9999 31.5494C61.9897 30.8154 61.7023 30.1125 61.1953 29.5817C60.5768 29.1896 59.8304 29.0527 59.113 29.1997C58.3956 29.3466 57.7631 29.766 57.3486 30.3697L56.1609 31.8614C56.1092 31.8203 56.0499 31.7899 55.9864 31.7718C55.9228 31.7537 55.8564 31.7483 55.7908 31.7559C55.6583 31.7712 55.5374 31.8385 55.4545 31.943C55.3716 32.0475 55.3337 32.1806 55.349 32.3131C55.3643 32.4456 55.4316 32.5665 55.5361 32.6494L39.0312 53.3748L42.9332 56.4931L59.438 35.8184L60.2261 36.4432L55.2153 42.6575C55.1321 42.7626 55.0919 42.8954 55.1027 43.029C55.1103 43.0951 55.131 43.1591 55.1637 43.2171C55.1963 43.2751 55.2403 43.326 55.293 43.3667C55.3974 43.4484 55.5296 43.4859 55.6614 43.4712C55.7932 43.4564 55.9139 43.3906 55.9977 43.2879L61.2888 36.6549C61.3322 36.6041 61.3647 36.5449 61.384 36.4809C61.4034 36.417 61.4093 36.3497 61.4014 36.2834C61.3844 36.1503 61.3161 36.0291 61.2111 35.9456L60.0628 35.027Z" fill="url(#paint1_radial)"/>
<path d="M50.58 0H12V45.9099H16.9635V4.50307H50.58V0Z" fill="url(#paint2_radial)"/>
<path d="M34.7145 52.2922H18.5586V6.13574H53.9651V28.6229L34.7145 52.2922ZM24.0197 28.6241V30.208H48.2012V28.6229H24.0208L24.0197 28.6241ZM24.0197 20.7088V22.2905H48.2012V20.7088H24.0197ZM24.0197 12.7924V14.3764H48.2012V12.7924H24.0197Z" fill="url(#paint3_radial)"/>
<path d="M24.2049 23.6226H0.0234375V25.2054H24.2049V23.6226Z" fill="white"/>
<defs>
<radialGradient id="paint0_radial" cx="0" cy="0" r="1" gradientUnits="userSpaceOnUse" gradientTransform="translate(38.805 54.1265) scale(11.9708 13.2719)">
<stop stop-color="#565656" stop-opacity="0.988"/>
<stop offset="1" stop-color="#2B2B2B"/>
</radialGradient>
<radialGradient id="paint1_radial" cx="0" cy="0" r="1" gradientUnits="userSpaceOnUse" gradientTransform="translate(50.5157 29.1421) scale(38.3352 45.6489)">
<stop stop-color="#565656" stop-opacity="0.988"/>
<stop offset="1" stop-color="#2B2B2B"/>
</radialGradient>
<radialGradient id="paint2_radial" cx="0" cy="0" r="1" gradientUnits="userSpaceOnUse" gradientTransform="translate(31.29) scale(64.3901 76.6236)">
<stop stop-color="#565656" stop-opacity="0.988"/>
<stop offset="1" stop-color="#2B2B2B"/>
</radialGradient>
<radialGradient id="paint3_radial" cx="0" cy="0" r="1" gradientUnits="userSpaceOnUse" gradientTransform="translate(36.2618 6.13574) scale(59.0934 77.0351)">
<stop stop-color="#565656" stop-opacity="0.988"/>
<stop offset="1" stop-color="#2B2B2B"/>
</radialGradient>
</defs>
</svg>
