<svg width="50" height="56" viewBox="0 0 50 56" fill="none" xmlns="http://www.w3.org/2000/svg">
<path d="M48.1458 19.6116C48.1228 19.8337 48.0274 20.0421 47.8743 20.2047C47.7212 20.3673 47.5189 20.475 47.2986 20.5114L44.5782 21.0509C44.3557 22.0952 44.0021 23.1071 43.5256 24.0626L45.3131 26.2718C45.48 26.49 45.5546 26.765 45.5207 27.0377C45.5001 27.2625 45.4089 27.475 45.26 27.6448L44.3275 28.6485L43.395 29.6523C43.2219 29.812 43.0019 29.9117 42.7677 29.9366C42.5334 29.9615 42.2974 29.9103 42.0946 29.7906L39.7762 28.2601C38.8592 28.8927 37.8472 29.375 36.7783 29.6888L36.3903 32.4951C36.3535 32.7404 36.232 32.965 36.0468 33.1301C35.8616 33.2951 35.6244 33.39 35.3765 33.3984L33.9949 33.4363L32.6132 33.4742C32.3555 33.4988 32.098 33.4246 31.893 33.2666C31.688 33.1085 31.5507 32.8784 31.509 32.6229L30.8787 29.8929C29.8449 29.6051 28.8399 29.2223 27.8766 28.7495L25.677 30.4461C25.4764 30.5949 25.2311 30.6707 24.9816 30.6611C24.7321 30.6515 24.4933 30.5569 24.3049 30.3931L23.3011 29.4606L22.2974 28.5281C22.1888 28.4197 22.107 28.2875 22.0586 28.1419C22.0102 27.9963 21.9964 27.8414 22.0185 27.6895C22.0359 27.5284 22.0836 27.372 22.159 27.2286L23.6895 24.9103C23.0941 24.0194 22.6396 23.0421 22.342 22.0127L19.5358 21.6247C19.2905 21.588 19.0658 21.4664 18.9008 21.2812C18.7358 21.096 18.6408 20.8589 18.6324 20.611L18.5037 19.2197L18.4658 17.838C18.4616 17.7699 18.463 17.7016 18.4699 17.6337C18.493 17.4115 18.5884 17.2032 18.7414 17.0406C18.8945 16.878 19.0968 16.7702 19.3171 16.7339L22.0471 16.1035C22.3343 15.0695 22.7171 14.0645 23.1905 13.1014L21.4939 10.9018C21.3271 10.6839 21.2525 10.4092 21.2862 10.1369C21.307 9.91208 21.3982 9.69959 21.5468 9.52972L22.6419 8.72682L23.5744 7.72308C23.7475 7.56335 23.9675 7.46365 24.2017 7.43873C24.4359 7.41382 24.672 7.46503 24.8748 7.58477L27.1931 9.11525C28.0516 8.51832 28.9988 8.06036 29.9998 7.75822L30.3878 4.95195C30.4248 4.70672 30.5464 4.48215 30.7315 4.31717C30.9167 4.15219 31.1537 4.05719 31.4016 4.04864L32.7833 4.01075L34.1649 3.97286C34.4227 3.94796 34.6802 4.0221 34.8853 4.1802C35.0904 4.33831 35.2276 4.56854 35.2691 4.82413L35.8086 7.54458C36.853 7.76667 37.865 8.12035 38.8203 8.59714L41.0295 6.80968C41.2312 6.66372 41.4759 6.58961 41.7247 6.59921C41.9734 6.60881 42.2118 6.70156 42.4016 6.86262L43.4053 7.79515L44.4091 8.72768C44.5177 8.83625 44.5994 8.96868 44.6478 9.11442C44.6962 9.26016 44.71 9.4152 44.6879 9.56717C44.6705 9.72859 44.6228 9.88528 44.5473 10.029L43.0168 12.3473C43.5778 13.2571 44.03 14.2296 44.3643 15.2449L47.1705 15.6328C47.4158 15.6696 47.6405 15.7912 47.8055 15.9764C47.9705 16.1616 48.0655 16.3987 48.0738 16.6466L48.1117 18.0283L48.1496 19.41C48.1538 19.4772 48.1525 19.5446 48.1458 19.6116ZM26.944 17.9254C26.8417 18.9202 26.9651 19.9253 27.3051 20.8658C27.6611 21.8427 28.2367 22.7249 28.9875 23.4442C30.2672 24.5942 31.9492 25.1925 33.6677 25.1091C35.3698 25.034 36.9725 24.2865 38.1238 23.0306C39.0594 21.9921 39.6432 20.6848 39.7919 19.2949C39.9039 18.2936 39.7732 17.2801 39.4107 16.34C39.0482 15.4 38.4646 14.561 37.7093 13.8942C36.4296 12.7448 34.7481 12.1469 33.03 12.2303C31.3279 12.3054 29.7252 13.0529 28.5738 14.3088C27.6544 15.3067 27.0829 16.5756 26.9449 17.9255L26.944 17.9254ZM37.0981 19.1291C37.0159 19.9297 36.6667 20.6793 36.1067 21.2573C35.5644 21.847 34.8503 22.2512 34.0656 22.4125C33.2808 22.5738 32.4652 22.4842 31.7343 22.1562C31.0033 21.8282 30.3941 21.2785 29.993 20.5851C29.5918 19.8916 29.419 19.0895 29.499 18.2923C29.5813 17.4918 29.9305 16.7422 30.4905 16.1642C30.8347 15.7799 31.2529 15.4689 31.7201 15.2499C32.1873 15.0309 32.6939 14.9084 33.2095 14.8898C33.6944 14.8724 34.1778 14.9532 34.6307 15.1272C35.0836 15.3013 35.4966 15.565 35.8451 15.9027C36.291 16.3055 36.6366 16.8071 36.8541 17.3673C37.0717 17.9276 37.1553 18.5309 37.0981 19.1291ZM26.1426 42.7878C26.1361 42.853 26.1216 42.9172 26.0995 42.9789L25.712 44.0401L25.3244 45.1014C25.2451 45.287 25.106 45.4409 24.9294 45.5387C24.7527 45.6365 24.5485 45.6726 24.349 45.6413L22.0973 45.22C21.6347 45.9956 21.0333 46.6793 20.3231 47.2371L20.9106 49.5034C20.9456 49.6237 20.957 49.7497 20.944 49.8743C20.9306 50.0241 20.8757 50.1671 20.7854 50.2874C20.6952 50.4077 20.5732 50.5004 20.4331 50.5551L19.3765 50.9947L18.3198 51.4343C18.1248 51.5462 17.8935 51.5769 17.6761 51.5196C17.4586 51.4622 17.2725 51.3216 17.1581 51.128L15.7961 49.2392C14.8917 49.4764 13.9494 49.533 13.0231 49.4058L11.8943 51.3991C11.7807 51.5624 11.6174 51.6845 11.4287 51.7474C11.24 51.8102 11.036 51.8104 10.8472 51.7479L9.78598 51.3603L8.63389 50.9632C8.44823 50.8838 8.29433 50.7448 8.19654 50.5682C8.09874 50.3915 8.06263 50.1873 8.09391 49.9878L8.50562 47.827C7.7299 47.3646 7.04611 46.7631 6.48856 46.0527L4.22229 46.6402C4.01941 46.6722 3.81159 46.644 3.62463 46.5589C3.43767 46.4739 3.2798 46.3358 3.17063 46.1618L2.73106 45.1052L2.2915 44.0485C2.20009 43.8981 2.1603 43.722 2.17818 43.547C2.2042 43.3195 2.31889 43.1115 2.49735 42.9681L4.38614 41.606L4.36469 41.3741C4.26098 40.5649 4.23987 39.7471 4.30169 38.9336L2.30837 37.8048C2.1427 37.7191 2.0077 37.5842 1.92203 37.4185C1.83636 37.2528 1.80424 37.0647 1.83009 36.88C1.83824 36.8043 1.85381 36.7297 1.87657 36.6571L2.26409 35.5958L2.75204 34.4533C2.83142 34.2677 2.97044 34.1138 3.1471 34.016C3.32376 33.9182 3.52798 33.8821 3.72747 33.9134L5.97914 34.3347C6.44203 33.5593 7.04342 32.8756 7.75336 32.3176L7.1659 30.0513C7.13129 29.931 7.12026 29.8051 7.13339 29.6805C7.14688 29.5307 7.20194 29.3875 7.29235 29.2673C7.38277 29.147 7.50495 29.0544 7.64516 28.9998L8.70185 28.5602L9.75853 28.1206C9.95401 28.0108 10.1846 27.9813 10.4014 28.0385C10.6182 28.0957 10.8043 28.235 10.9202 28.4269L12.2822 30.3157C13.1625 30.1233 14.0665 30.0639 14.9643 30.1395L16.1027 28.0553C16.2164 27.8921 16.3797 27.77 16.5684 27.7071C16.7571 27.6443 16.961 27.6441 17.1498 27.7066L18.2111 28.0941L19.2723 28.4817C19.4574 28.5618 19.6107 28.701 19.7084 28.8774C19.8061 29.0539 19.8426 29.2577 19.8123 29.4571L19.391 31.7088C20.1663 32.1717 20.85 32.7731 21.4081 33.483L23.7556 32.9959C23.9589 32.9281 24.1803 32.9398 24.3754 33.0285C24.5705 33.1172 24.7248 33.2765 24.8073 33.4743L25.2468 34.531L25.6864 35.5877C25.7699 35.756 25.8057 35.944 25.7897 36.1313C25.7755 36.2596 25.7309 36.3826 25.6597 36.4903C25.5884 36.5979 25.4925 36.687 25.38 36.7502L23.4912 38.1123C23.6831 38.9926 23.7425 39.8966 23.6674 40.7944L25.7516 41.9328C25.8883 42.0263 25.9971 42.1554 26.0661 42.306C26.1351 42.4566 26.1619 42.6232 26.1435 42.7879L26.1426 42.7878ZM9.32613 39.2682C9.23658 40.1413 9.39443 41.0221 9.78166 41.8098C10.3345 42.8945 11.2828 43.7255 12.4307 44.1311C12.9918 44.3364 13.589 44.424 14.1854 44.3883C14.7817 44.3526 15.3643 44.1945 15.8968 43.9237C16.5877 43.573 17.1797 43.0549 17.6191 42.4168C18.0585 41.7786 18.3311 41.0407 18.4123 40.2701C18.4983 39.4288 18.3598 38.5798 18.0106 37.8095C17.4678 36.737 16.5294 35.9174 15.3936 35.5238C14.2494 35.1306 12.998 35.1915 11.8975 35.694C11.1918 36.0093 10.5823 36.5059 10.1308 37.1332C9.67939 37.7606 9.40216 38.4963 9.32733 39.2655L9.32613 39.2682Z" fill="url(#paint0_radial)"/>
<defs>
<radialGradient id="paint0_radial" cx="0" cy="0" r="1" gradientUnits="userSpaceOnUse" gradientTransform="translate(2.99856 25.8021) rotate(-83.9762) scale(83.45 73.8504)">
<stop stop-color="#565656" stop-opacity="0.988"/>
<stop offset="1" stop-color="#2B2B2B"/>
</radialGradient>
</defs>
</svg>
