<svg width="59" height="59" viewBox="0 0 59 59" fill="none" xmlns="http://www.w3.org/2000/svg">
<path d="M49.1416 58.9999H44.2253C44.0778 59.0025 43.9344 58.9517 43.8214 58.8569C43.7085 58.7621 43.6336 58.6296 43.6106 58.4839L43.1429 55.2389C42.3918 54.9409 41.6879 54.5354 41.0532 54.0353L38.0056 55.2647C37.9327 55.2893 37.8562 55.302 37.7793 55.3022C37.6703 55.3047 37.5627 55.2773 37.4681 55.2231C37.3736 55.1688 37.2957 55.0897 37.2429 54.9944L34.7853 50.7399C34.7176 50.6114 34.6954 50.4637 34.7223 50.321C34.7491 50.1782 34.8235 50.0487 34.9333 49.9536L37.539 47.9154C37.4412 47.1157 37.4412 46.3069 37.539 45.5072L34.9333 43.469C34.8172 43.3781 34.7382 43.2481 34.711 43.1032C34.6838 42.9583 34.7102 42.8084 34.7853 42.6816L37.2429 38.4283C37.3012 38.3347 37.3822 38.2574 37.4784 38.2035C37.5747 38.1497 37.6829 38.1211 37.7932 38.1204C37.8664 38.1201 37.939 38.1328 38.0077 38.1579L41.0554 39.3873C41.6999 38.9015 42.4017 38.497 43.145 38.1826L43.6127 34.9376C43.6401 34.794 43.7163 34.6642 43.8282 34.5702C43.9402 34.4762 44.0812 34.4237 44.2274 34.4216H49.1416C49.2866 34.4188 49.4275 34.4701 49.5368 34.5655C49.646 34.6608 49.7159 34.7935 49.7326 34.9376L50.2036 38.1783C50.9548 38.4766 51.6586 38.8824 52.2932 39.383L55.3408 38.1536C55.4138 38.129 55.4902 38.1163 55.5672 38.1161C55.6762 38.1134 55.7839 38.1406 55.8785 38.1949C55.9731 38.2492 56.0509 38.3284 56.1035 38.424L58.5622 42.6773C58.6299 42.8059 58.6521 42.9535 58.6252 43.0963C58.5984 43.239 58.524 43.3685 58.4142 43.4636L55.8086 45.5018C55.879 45.8994 55.9121 46.3027 55.9072 46.7065C55.8997 47.1094 55.8667 47.5113 55.8086 47.9101L58.4389 49.9482C58.5487 50.0434 58.623 50.1728 58.6499 50.3156C58.6768 50.4584 58.6546 50.606 58.5869 50.7346L56.1293 54.9879C56.0712 55.0815 55.9904 55.1588 55.8944 55.2127C55.7983 55.2665 55.6902 55.2951 55.5801 55.2958C55.5069 55.2961 55.4342 55.2833 55.3655 55.2582L52.2922 54.0289C51.6597 54.519 50.9654 54.9237 50.2272 55.2325L49.7594 58.4775C49.7333 58.6228 49.6572 58.7545 49.5445 58.8498C49.4317 58.9452 49.2892 58.9983 49.1416 58.9999ZM46.6839 43.0163C45.9545 43.0163 45.2415 43.2326 44.635 43.6378C44.0285 44.0431 43.5558 44.6191 43.2766 45.293C42.9975 45.9669 42.9245 46.7084 43.0668 47.4238C43.2091 48.1392 43.5603 48.7964 44.0761 49.3122C44.5919 49.8279 45.249 50.1792 45.9644 50.3215C46.6799 50.4638 47.4214 50.3908 48.0953 50.1116C48.7692 49.8325 49.3452 49.3598 49.7504 48.7533C50.1557 48.1468 50.372 47.4338 50.372 46.7043C50.3711 45.7265 49.9823 44.7889 49.2908 44.0974C48.5994 43.406 47.6618 43.0171 46.6839 43.0163ZM28.4186 49.1662H0L49.1662 0L49.1416 28.4433C48.3266 28.3363 47.5059 28.2787 46.6839 28.2706C41.7944 28.2723 37.1056 30.2154 33.6482 33.6729C30.1908 37.1303 28.2476 41.8191 28.2459 46.7086C28.2526 47.5302 28.311 48.3517 28.4186 49.1662Z" fill="url(#paint0_radial)"/>
<defs>
<radialGradient id="paint0_radial" cx="0" cy="0" r="1" gradientUnits="userSpaceOnUse" gradientTransform="translate(29.3305) scale(97.9053 98.471)">
<stop stop-color="#565656" stop-opacity="0.988"/>
<stop offset="1" stop-color="#2B2B2B"/>
</radialGradient>
</defs>
</svg>
