<svg width="149" height="24" viewBox="0 0 149 24" fill="none" xmlns="http://www.w3.org/2000/svg">
<path d="M12.5244 19H9.43066L8.53418 16.1963H4.05176L3.16406 19H0.0878906L4.67578 6.39648H8.04199L12.5244 19ZM7.88379 14.0166L6.53027 9.78027C6.43066 9.46387 6.36035 9.08594 6.31934 8.64648H6.24902C6.21973 9.01562 6.14648 9.38184 6.0293 9.74512L4.6582 14.0166H7.88379Z" fill="url(#paint0_radial)"/>
<path d="M44.4082 19H42.7734L41.4375 15.4668H36.0938L34.8369 19H33.1934L38.0273 6.39648H39.5566L44.4082 19ZM40.9541 14.1396L38.9766 8.76953C38.9121 8.59375 38.8477 8.3125 38.7832 7.92578H38.748C38.6895 8.2832 38.6221 8.56445 38.5459 8.76953L36.5859 14.1396H40.9541Z" fill="url(#paint1_radial)"/>
<path d="M74.1143 13.709L73.3672 8.00488L70.0713 13.709H74.1143ZM72.8662 6.08887H74.8438L76.7861 19H74.8701L74.3779 15.1328H69.2715L67.0566 19H65.2637L72.8662 6.08887Z" fill="url(#paint2_radial)"/>
<rect x="32" y="20" width="14" height="1" fill="url(#paint3_radial)"/>
<rect x="131" y="6" width="2.82608" height="2.82608" rx="0.619047" fill="url(#paint4_radial)"/>
<rect x="131" y="11.0869" width="2.82608" height="2.82608" rx="0.619047" fill="url(#paint5_radial)"/>
<rect x="131" y="16.1738" width="2.82608" height="2.82608" rx="0.619047" fill="url(#paint6_radial)"/>
<rect x="134.957" y="6" width="13.5652" height="2.82608" fill="url(#paint7_radial)"/>
<rect x="134.957" y="11.0869" width="13.5652" height="2.82608" fill="url(#paint8_radial)"/>
<rect x="134.957" y="16.1738" width="13.5652" height="2.82608" fill="url(#paint9_radial)"/>
<rect x="98" y="6" width="13" height="13" fill="url(#paint10_radial)"/>
<defs>
<radialGradient id="paint0_radial" cx="0" cy="0" r="1" gradientUnits="userSpaceOnUse" gradientTransform="translate(6.5) scale(21.697 40.056)">
<stop stop-color="#565656" stop-opacity="0.988"/>
<stop offset="1" stop-color="#2B2B2B"/>
</radialGradient>
<radialGradient id="paint1_radial" cx="0" cy="0" r="1" gradientUnits="userSpaceOnUse" gradientTransform="translate(39) scale(20.028 40.056)">
<stop stop-color="#565656" stop-opacity="0.988"/>
<stop offset="1" stop-color="#2B2B2B"/>
</radialGradient>
<radialGradient id="paint2_radial" cx="0" cy="0" r="1" gradientUnits="userSpaceOnUse" gradientTransform="translate(71.5 2) scale(21.697 35.049)">
<stop stop-color="#565656" stop-opacity="0.988"/>
<stop offset="1" stop-color="#2B2B2B"/>
</radialGradient>
<radialGradient id="paint3_radial" cx="0" cy="0" r="1" gradientUnits="userSpaceOnUse" gradientTransform="translate(39 20) scale(23.366 1.669)">
<stop stop-color="#565656" stop-opacity="0.988"/>
<stop offset="1" stop-color="#2B2B2B"/>
</radialGradient>
<radialGradient id="paint4_radial" cx="0" cy="0" r="1" gradientUnits="userSpaceOnUse" gradientTransform="translate(132.413 6) scale(4.71673)">
<stop stop-color="#565656" stop-opacity="0.988"/>
<stop offset="1" stop-color="#2B2B2B"/>
</radialGradient>
<radialGradient id="paint5_radial" cx="0" cy="0" r="1" gradientUnits="userSpaceOnUse" gradientTransform="translate(132.413 11.0869) scale(4.71673)">
<stop stop-color="#565656" stop-opacity="0.988"/>
<stop offset="1" stop-color="#2B2B2B"/>
</radialGradient>
<radialGradient id="paint6_radial" cx="0" cy="0" r="1" gradientUnits="userSpaceOnUse" gradientTransform="translate(132.413 16.1738) scale(4.71673)">
<stop stop-color="#565656" stop-opacity="0.988"/>
<stop offset="1" stop-color="#2B2B2B"/>
</radialGradient>
<radialGradient id="paint7_radial" cx="0" cy="0" r="1" gradientUnits="userSpaceOnUse" gradientTransform="translate(141.74 6) scale(22.6403 4.71673)">
<stop stop-color="#565656" stop-opacity="0.988"/>
<stop offset="1" stop-color="#2B2B2B"/>
</radialGradient>
<radialGradient id="paint8_radial" cx="0" cy="0" r="1" gradientUnits="userSpaceOnUse" gradientTransform="translate(141.74 11.0869) scale(22.6403 4.71673)">
<stop stop-color="#565656" stop-opacity="0.988"/>
<stop offset="1" stop-color="#2B2B2B"/>
</radialGradient>
<radialGradient id="paint9_radial" cx="0" cy="0" r="1" gradientUnits="userSpaceOnUse" gradientTransform="translate(141.74 16.1738) scale(22.6403 4.71673)">
<stop stop-color="#565656" stop-opacity="0.988"/>
<stop offset="1" stop-color="#2B2B2B"/>
</radialGradient>
<radialGradient id="paint10_radial" cx="0" cy="0" r="1" gradientUnits="userSpaceOnUse" gradientTransform="translate(104.5 6) scale(21.697)">
<stop stop-color="#565656" stop-opacity="0.988"/>
<stop offset="1" stop-color="#2B2B2B"/>
</radialGradient>
</defs>
</svg>
