<svg width="796" height="180" viewBox="0 0 796 180" fill="none" xmlns="http://www.w3.org/2000/svg">
<path d="M358.164 25.2604C361.792 25.2604 364.733 22.3291 364.733 18.7132C364.733 15.0973 361.792 12.166 358.164 12.166C354.535 12.166 351.594 15.0973 351.594 18.7132C351.594 22.3291 354.535 25.2604 358.164 25.2604Z" fill="#FFA012"/>
<path d="M358.162 35.4264C367.424 35.4264 374.932 27.9436 374.932 18.7132C374.932 9.48275 367.424 2 358.162 2C348.899 2 341.391 9.48275 341.391 18.7132C341.391 27.9436 348.899 35.4264 358.162 35.4264Z" stroke="#1271FF" stroke-width="3" stroke-miterlimit="10"/>
<path d="M392.796 25.2604C396.425 25.2604 399.366 22.3291 399.366 18.7132C399.366 15.0973 396.425 12.166 392.796 12.166C389.168 12.166 386.227 15.0973 386.227 18.7132C386.227 22.3291 389.168 25.2604 392.796 25.2604Z" fill="#FFA012"/>
<path d="M392.794 35.4264C402.057 35.4264 409.565 27.9436 409.565 18.7132C409.565 9.48275 402.057 2 392.794 2C383.532 2 376.023 9.48275 376.023 18.7132C376.023 27.9436 383.532 35.4264 392.794 35.4264Z" stroke="#1271FF" stroke-width="3" stroke-miterlimit="10"/>
<path d="M427.351 25.5827C430.979 25.5827 433.921 22.6514 433.921 19.0355C433.921 15.4196 430.979 12.4883 427.351 12.4883C423.723 12.4883 420.781 15.4196 420.781 19.0355C420.781 22.6514 423.723 25.5827 427.351 25.5827Z" fill="#FFA012"/>
<path d="M427.353 35.7487C436.615 35.7487 444.124 28.2659 444.124 19.0355C444.124 9.80502 436.615 2.32227 427.353 2.32227C418.091 2.32227 410.582 9.80502 410.582 19.0355C410.582 28.2659 418.091 35.7487 427.353 35.7487Z" stroke="#1271FF" stroke-width="3" stroke-miterlimit="10"/>
<path d="M357.824 58.9967C361.452 58.9967 364.394 56.0655 364.394 52.4495C364.394 48.8336 361.452 45.9023 357.824 45.9023C354.195 45.9023 351.254 48.8336 351.254 52.4495C351.254 56.0655 354.195 58.9967 357.824 58.9967Z" fill="#FFA012"/>
<path d="M357.822 69.1627C367.084 69.1627 374.593 61.68 374.593 52.4495C374.593 43.2191 367.084 35.7363 357.822 35.7363C348.559 35.7363 341.051 43.2191 341.051 52.4495C341.051 61.68 348.559 69.1627 357.822 69.1627Z" stroke="#1271FF" stroke-width="3" stroke-miterlimit="10"/>
<path d="M357.821 40.3621C360.385 40.3621 362.463 38.2911 362.463 35.7365C362.463 33.1818 360.385 31.1108 357.821 31.1108C355.258 31.1108 353.18 33.1818 353.18 35.7365C353.18 38.2911 355.258 40.3621 357.821 40.3621Z" fill="#FFA012"/>
<path d="M392.456 58.9967C396.085 58.9967 399.026 56.0655 399.026 52.4495C399.026 48.8336 396.085 45.9023 392.456 45.9023C388.828 45.9023 385.887 48.8336 385.887 52.4495C385.887 56.0655 388.828 58.9967 392.456 58.9967Z" fill="#FFA012"/>
<path d="M392.458 69.1627C401.721 69.1627 409.229 61.68 409.229 52.4495C409.229 43.2191 401.721 35.7363 392.458 35.7363C383.196 35.7363 375.688 43.2191 375.688 52.4495C375.688 61.68 383.196 69.1627 392.458 69.1627Z" stroke="#1271FF" stroke-width="3" stroke-miterlimit="10"/>
<path d="M392.458 40.3621C395.021 40.3621 397.1 38.2911 397.1 35.7365C397.1 33.1818 395.021 31.1108 392.458 31.1108C389.894 31.1108 387.816 33.1818 387.816 35.7365C387.816 38.2911 389.894 40.3621 392.458 40.3621Z" fill="#FFA012"/>
<path d="M427.015 59.319C430.644 59.319 433.585 56.3877 433.585 52.7718C433.585 49.1559 430.644 46.2246 427.015 46.2246C423.387 46.2246 420.445 49.1559 420.445 52.7718C420.445 56.3877 423.387 59.319 427.015 59.319Z" fill="#FFA012"/>
<path d="M427.013 69.485C436.275 69.485 443.784 62.0022 443.784 52.7718C443.784 43.5413 436.275 36.0586 427.013 36.0586C417.751 36.0586 410.242 43.5413 410.242 52.7718C410.242 62.0022 417.751 69.485 427.013 69.485Z" stroke="#1271FF" stroke-width="3" stroke-miterlimit="10"/>
<path d="M427.013 40.6843C429.576 40.6843 431.654 38.6134 431.654 36.0587C431.654 33.5041 429.576 31.4331 427.013 31.4331C424.449 31.4331 422.371 33.5041 422.371 36.0587C422.371 38.6134 424.449 40.6843 427.013 40.6843Z" fill="#FFA012"/>
<path d="M357.992 92.7409C361.62 92.7409 364.562 89.8096 364.562 86.1937C364.562 82.5778 361.62 79.6465 357.992 79.6465C354.363 79.6465 351.422 82.5778 351.422 86.1937C351.422 89.8096 354.363 92.7409 357.992 92.7409Z" fill="#FFA012"/>
<path d="M357.994 102.906C367.256 102.906 374.765 95.4236 374.765 86.1932C374.765 76.9627 367.256 69.48 357.994 69.48C348.731 69.48 341.223 76.9627 341.223 86.1932C341.223 95.4236 348.731 102.906 357.994 102.906Z" stroke="#1271FF" stroke-width="3" stroke-miterlimit="10"/>
<path d="M357.993 74.1116C360.557 74.1116 362.635 72.0406 362.635 69.486C362.635 66.9313 360.557 64.8604 357.993 64.8604C355.43 64.8604 353.352 66.9313 353.352 69.486C353.352 72.0406 355.43 74.1116 357.993 74.1116Z" fill="#FFA012"/>
<path d="M392.628 92.7409C396.257 92.7409 399.198 89.8096 399.198 86.1937C399.198 82.5778 396.257 79.6465 392.628 79.6465C389 79.6465 386.059 82.5778 386.059 86.1937C386.059 89.8096 389 92.7409 392.628 92.7409Z" fill="#FFA012"/>
<path d="M392.626 102.906C401.889 102.906 409.397 95.4236 409.397 86.1932C409.397 76.9627 401.889 69.48 392.626 69.48C383.364 69.48 375.855 76.9627 375.855 86.1932C375.855 95.4236 383.364 102.906 392.626 102.906Z" stroke="#1271FF" stroke-width="3" stroke-miterlimit="10"/>
<path d="M392.626 74.1116C395.189 74.1116 397.268 72.0406 397.268 69.486C397.268 66.9313 395.189 64.8604 392.626 64.8604C390.063 64.8604 387.984 66.9313 387.984 69.486C387.984 72.0406 390.063 74.1116 392.626 74.1116Z" fill="#FFA012"/>
<path d="M427.183 93.0685C430.812 93.0685 433.753 90.1372 433.753 86.5213C433.753 82.9054 430.812 79.9741 427.183 79.9741C423.555 79.9741 420.613 82.9054 420.613 86.5213C420.613 90.1372 423.555 93.0685 427.183 93.0685Z" fill="#FFA012"/>
<path d="M427.181 103.235C436.443 103.235 443.952 95.7518 443.952 86.5213C443.952 77.2909 436.443 69.8081 427.181 69.8081C417.919 69.8081 410.41 77.2909 410.41 86.5213C410.41 95.7518 417.919 103.235 427.181 103.235Z" stroke="#1271FF" stroke-width="3" stroke-miterlimit="10"/>
<path d="M427.181 74.4338C429.744 74.4338 431.822 72.3629 431.822 69.8082C431.822 67.2536 429.744 65.1826 427.181 65.1826C424.617 65.1826 422.539 67.2536 422.539 69.8082C422.539 72.3629 424.617 74.4338 427.181 74.4338Z" fill="#FFA012"/>
<path d="M357.992 126.478C361.62 126.478 364.562 123.546 364.562 119.931C364.562 116.315 361.62 113.383 357.992 113.383C354.363 113.383 351.422 116.315 351.422 119.931C351.422 123.546 354.363 126.478 357.992 126.478Z" fill="#FFA012"/>
<path d="M357.994 136.643C367.256 136.643 374.765 129.16 374.765 119.93C374.765 110.7 367.256 103.217 357.994 103.217C348.731 103.217 341.223 110.7 341.223 119.93C341.223 129.16 348.731 136.643 357.994 136.643Z" stroke="#1271FF" stroke-width="3" stroke-miterlimit="10"/>
<path d="M357.993 107.848C360.557 107.848 362.635 105.777 362.635 103.223C362.635 100.668 360.557 98.5972 357.993 98.5972C355.43 98.5972 353.352 100.668 353.352 103.223C353.352 105.777 355.43 107.848 357.993 107.848Z" fill="#FFA012"/>
<path d="M392.628 126.478C396.257 126.478 399.198 123.546 399.198 119.931C399.198 116.315 396.257 113.383 392.628 113.383C389 113.383 386.059 116.315 386.059 119.931C386.059 123.546 389 126.478 392.628 126.478Z" fill="#FFA012"/>
<path d="M392.626 136.643C401.889 136.643 409.397 129.16 409.397 119.93C409.397 110.7 401.889 103.217 392.626 103.217C383.364 103.217 375.855 110.7 375.855 119.93C375.855 129.16 383.364 136.643 392.626 136.643Z" stroke="#1271FF" stroke-width="3" stroke-miterlimit="10"/>
<path d="M392.626 107.848C395.189 107.848 397.268 105.777 397.268 103.223C397.268 100.668 395.189 98.5972 392.626 98.5972C390.063 98.5972 387.984 100.668 387.984 103.223C387.984 105.777 390.063 107.848 392.626 107.848Z" fill="#FFA012"/>
<path d="M427.183 126.805C430.812 126.805 433.753 123.874 433.753 120.258C433.753 116.642 430.812 113.711 427.183 113.711C423.555 113.711 420.613 116.642 420.613 120.258C420.613 123.874 423.555 126.805 427.183 126.805Z" fill="#FFA012"/>
<path d="M427.181 136.971C436.443 136.971 443.952 129.489 443.952 120.258C443.952 111.028 436.443 103.545 427.181 103.545C417.919 103.545 410.41 111.028 410.41 120.258C410.41 129.489 417.919 136.971 427.181 136.971Z" stroke="#1271FF" stroke-width="3" stroke-miterlimit="10"/>
<path d="M427.181 108.171C429.744 108.171 431.822 106.1 431.822 103.545C431.822 100.99 429.744 98.9194 427.181 98.9194C424.617 98.9194 422.539 100.99 422.539 103.545C422.539 106.1 424.617 108.171 427.181 108.171Z" fill="#FFA012"/>
<path d="M375.688 125.459C378.252 125.459 380.33 123.388 380.33 120.833C380.33 118.278 378.252 116.208 375.688 116.208C373.125 116.208 371.047 118.278 371.047 120.833C371.047 123.388 373.125 125.459 375.688 125.459Z" fill="#FFA012"/>
<path d="M409.228 125.459C411.791 125.459 413.869 123.388 413.869 120.833C413.869 118.278 411.791 116.208 409.228 116.208C406.664 116.208 404.586 118.278 404.586 120.833C404.586 123.388 406.664 125.459 409.228 125.459Z" fill="#FFA012"/>
<path d="M375.688 90.9392C378.252 90.9392 380.33 88.8683 380.33 86.3136C380.33 83.7589 378.252 81.688 375.688 81.688C373.125 81.688 371.047 83.7589 371.047 86.3136C371.047 88.8683 373.125 90.9392 375.688 90.9392Z" fill="#FFA012"/>
<path d="M409.228 90.9392C411.791 90.9392 413.869 88.8683 413.869 86.3136C413.869 83.7589 411.791 81.688 409.228 81.688C406.664 81.688 404.586 83.7589 404.586 86.3136C404.586 88.8683 406.664 90.9392 409.228 90.9392Z" fill="#FFA012"/>
<path d="M375.688 56.9949C378.252 56.9949 380.33 54.9239 380.33 52.3693C380.33 49.8146 378.252 47.7437 375.688 47.7437C373.125 47.7437 371.047 49.8146 371.047 52.3693C371.047 54.9239 373.125 56.9949 375.688 56.9949Z" fill="#FFA012"/>
<path d="M409.228 56.9949C411.791 56.9949 413.869 54.9239 413.869 52.3693C413.869 49.8146 411.791 47.7437 409.228 47.7437C406.664 47.7437 404.586 49.8146 404.586 52.3693C404.586 54.9239 406.664 56.9949 409.228 56.9949Z" fill="#FFA012"/>
<path d="M375.688 23.051C378.252 23.051 380.33 20.9801 380.33 18.4254C380.33 15.8708 378.252 13.7998 375.688 13.7998C373.125 13.7998 371.047 15.8708 371.047 18.4254C371.047 20.9801 373.125 23.051 375.688 23.051Z" fill="#FFA012"/>
<path d="M409.228 23.051C411.791 23.051 413.869 20.9801 413.869 18.4254C413.869 15.8708 411.791 13.7998 409.228 13.7998C406.664 13.7998 404.586 15.8708 404.586 18.4254C404.586 20.9801 406.664 23.051 409.228 23.051Z" fill="#FFA012"/>
<path d="M792.863 117.669H702.219V3.104H774.62L792.863 22.9355V117.669Z" fill="#FFA012" stroke="#FFA012" stroke-width="6" stroke-miterlimit="10"/>
<path d="M775.175 136.401H684.531V21.8311H756.938L775.175 41.6625V136.401Z" fill="#1271FF" stroke="#1271FF" stroke-width="6" stroke-miterlimit="10"/>
<path d="M601.918 117.991L618.897 118.158V106.652" stroke="#FFA012" stroke-width="4" stroke-miterlimit="10"/>
<path d="M618.894 86.8146V22.9937L615.102 18.8687" stroke="#FFA012" stroke-width="4" stroke-miterlimit="10" stroke-dasharray="34.47 34.47"/>
<path d="M608.379 11.5617L600.574 3.07568H589.027" stroke="#FFA012" stroke-width="4" stroke-miterlimit="10"/>
<path d="M572.487 3.07568H547.668" stroke="#FFA012" stroke-width="4" stroke-miterlimit="10" stroke-dasharray="28.66 28.66"/>
<path d="M539.394 3.07568H527.848V19.3919" stroke="#FFA012" stroke-width="4" stroke-miterlimit="10"/>
<path d="M590.613 30.369L582.808 21.8887H571.262" stroke="#1271FF" stroke-width="4" stroke-miterlimit="10"/>
<path d="M554.717 21.8887H529.898" stroke="#1271FF" stroke-width="4" stroke-miterlimit="10" stroke-dasharray="28.66 28.66"/>
<path d="M521.624 21.8887H510.078V33.3952" stroke="#1271FF" stroke-width="4" stroke-miterlimit="10"/>
<path d="M510.078 51.8057V116.254" stroke="#1271FF" stroke-width="4" stroke-miterlimit="10" stroke-dasharray="32.01 32.01"/>
<path d="M510.078 125.459V136.965H521.624" stroke="#1271FF" stroke-width="4" stroke-miterlimit="10"/>
<path d="M544.277 136.965H578.258" stroke="#1271FF" stroke-width="4" stroke-miterlimit="10" stroke-dasharray="39.24 39.24"/>
<path d="M589.586 136.965H601.132V125.459" stroke="#1271FF" stroke-width="4" stroke-miterlimit="10"/>
<path d="M601.135 105.628V41.8067L597.336 37.6816" stroke="#1271FF" stroke-width="4" stroke-miterlimit="10" stroke-dasharray="34.47 34.47"/>
<path d="M190.176 118.699C196.289 118.699 201.244 113.761 201.244 107.67C201.244 101.579 196.289 96.6411 190.176 96.6411C184.064 96.6411 179.109 101.579 179.109 107.67C179.109 113.761 184.064 118.699 190.176 118.699Z" fill="#FFA012"/>
<path d="M190.179 135.838C205.79 135.838 218.445 123.227 218.445 107.67C218.445 92.1132 205.79 79.502 190.179 79.502C174.569 79.502 161.914 92.1132 161.914 107.67C161.914 123.227 174.569 135.838 190.179 135.838Z" stroke="#1271FF" stroke-width="3" stroke-miterlimit="10"/>
<path d="M247.719 119.827C253.832 119.827 258.787 114.889 258.787 108.798C258.787 102.706 253.832 97.7686 247.719 97.7686C241.607 97.7686 236.652 102.706 236.652 108.798C236.652 114.889 241.607 119.827 247.719 119.827Z" fill="#FFA012"/>
<path d="M247.718 136.965C263.329 136.965 275.984 124.354 275.984 108.797C275.984 93.2406 263.329 80.6294 247.718 80.6294C232.108 80.6294 219.453 93.2406 219.453 108.797C219.453 124.354 232.108 136.965 247.718 136.965Z" stroke="#1271FF" stroke-width="3" stroke-miterlimit="10"/>
<path d="M219.985 122.024C224.308 122.024 227.813 118.531 227.813 114.223C227.813 109.914 224.308 106.421 219.985 106.421C215.661 106.421 212.156 109.914 212.156 114.223C212.156 118.531 215.661 122.024 219.985 122.024Z" fill="#FFA012"/>
<path d="M218.231 69.3304C224.343 69.3304 229.298 64.3926 229.298 58.3014C229.298 52.2103 224.343 47.2725 218.231 47.2725C212.119 47.2725 207.164 52.2103 207.164 58.3014C207.164 64.3926 212.119 69.3304 218.231 69.3304Z" fill="#FFA012"/>
<path d="M218.23 86.4692C233.841 86.4692 246.495 73.8579 246.495 58.3012C246.495 42.7445 233.841 30.1333 218.23 30.1333C202.62 30.1333 189.965 42.7445 189.965 58.3012C189.965 73.8579 202.62 86.4692 218.23 86.4692Z" stroke="#1271FF" stroke-width="3" stroke-miterlimit="10"/>
<path d="M198.008 87.303C202.332 87.303 205.836 83.8102 205.836 79.5016C205.836 75.193 202.332 71.7002 198.008 71.7002C193.685 71.7002 190.18 75.193 190.18 79.5016C190.18 83.8102 193.685 87.303 198.008 87.303Z" fill="#FFA012"/>
<path d="M236.867 86.6712C241.191 86.6712 244.696 83.1784 244.696 78.8698C244.696 74.5612 241.191 71.0684 236.867 71.0684C232.544 71.0684 229.039 74.5612 229.039 78.8698C229.039 83.1784 232.544 86.6712 236.867 86.6712Z" fill="#FFA012"/>
<path d="M43.2334 110.817C52.1514 110.817 59.3809 103.612 59.3809 94.7247C59.3809 85.8374 52.1514 78.6328 43.2334 78.6328C34.3154 78.6328 27.0859 85.8374 27.0859 94.7247C27.0859 103.612 34.3154 110.817 43.2334 110.817Z" fill="#FFA012"/>
<path d="M43.2317 135.814C66.0034 135.814 84.4635 117.418 84.4635 94.7245C84.4635 72.0313 66.0034 53.6348 43.2317 53.6348C20.4601 53.6348 2 72.0313 2 94.7245C2 117.418 20.4601 135.814 43.2317 135.814Z" stroke="#1271FF" stroke-width="3" stroke-miterlimit="10"/>
<path d="M43.2318 65.0147C49.5384 65.0147 54.651 59.9198 54.651 53.6348C54.651 47.3499 49.5384 42.2549 43.2318 42.2549C36.9251 42.2549 31.8125 47.3499 31.8125 53.6348C31.8125 59.9198 36.9251 65.0147 43.2318 65.0147Z" fill="#FFA012"/>
<path d="M25.8414 168.551L24.6291 172.21H23.0703L27.0365 160.577H28.855L32.8385 172.21H31.2278L29.975 168.551H25.8414ZM29.669 167.4L28.5144 164.052C28.2546 163.292 28.0814 162.602 27.9371 161.929H27.9024C27.7292 162.619 27.5387 163.327 27.3251 164.034L26.1705 167.4H29.669Z" fill="url(#paint0_radial)"/>
<path d="M36.1636 161.457V163.856H38.3458V165.007H36.1636V169.512C36.1636 170.547 36.458 171.134 37.3182 171.134C37.6159 171.138 37.9129 171.103 38.2015 171.03L38.2708 172.181C37.8371 172.332 37.3791 172.403 36.9199 172.388C36.6156 172.406 36.3111 172.359 36.0271 172.248C35.7431 172.138 35.4863 171.968 35.2745 171.75C34.8415 171.301 34.6972 170.559 34.6972 169.575V165.018H33.3867V163.868H34.6857V161.866L36.1636 161.457Z" fill="url(#paint1_radial)"/>
<path d="M47.5375 167.964C47.5375 171.053 45.3957 172.399 43.3693 172.399C41.1005 172.399 39.3281 170.743 39.3281 168.102C39.3281 165.306 41.164 163.666 43.4848 163.666C45.8056 163.666 47.5375 165.404 47.5375 167.964ZM40.8926 168.05C40.8926 169.88 41.9491 171.26 43.4386 171.26C44.9281 171.26 45.9845 169.897 45.9845 168.015C45.9845 166.6 45.2745 164.805 43.4732 164.805C41.672 164.805 40.8926 166.462 40.8926 168.05Z" fill="url(#paint2_radial)"/>
<path d="M49.4619 166.117C49.4619 165.254 49.4619 164.546 49.3984 163.856H50.7089L50.7782 165.202H50.8302C51.0841 164.726 51.4672 164.331 51.9357 164.061C52.4043 163.792 52.9394 163.659 53.48 163.678C54.0029 163.671 54.5144 163.83 54.9415 164.131C55.3686 164.431 55.6896 164.859 55.8586 165.352H55.9048C56.1383 164.929 56.4567 164.559 56.84 164.264C57.3726 163.865 58.0273 163.662 58.6932 163.689C59.8016 163.689 61.447 164.414 61.447 167.314V172.233H59.946V167.503C59.946 165.898 59.3686 164.932 58.1274 164.932C57.721 164.949 57.3299 165.091 57.0075 165.338C56.6851 165.585 56.4471 165.926 56.3262 166.313C56.2468 166.558 56.2059 166.814 56.205 167.072V172.25H54.7155V167.245C54.7155 165.916 54.1382 164.943 52.9836 164.943C52.5484 164.968 52.1319 165.128 51.7924 165.4C51.4529 165.672 51.2073 166.044 51.09 166.462C51.0077 166.701 50.9667 166.952 50.9687 167.204V172.244H49.4793L49.4619 166.117Z" fill="url(#paint3_radial)"/>
<path d="M193.675 162.269V172.383C193.675 173.056 193.589 173.298 192.757 173.298C191.926 173.298 191.822 173.056 191.822 172.383V163.718L188.185 167.982C188.109 168.093 188.007 168.184 187.888 168.248C187.769 168.311 187.636 168.344 187.501 168.344C187.366 168.344 187.233 168.311 187.113 168.248C186.994 168.184 186.892 168.093 186.817 167.982L183.197 163.718V172.383C183.197 173.056 183.11 173.298 182.244 173.298C181.378 173.298 181.344 173.056 181.344 172.383V162.269C181.344 161.475 181.378 161.164 181.985 160.94C182.591 160.715 182.972 160.836 183.422 161.406L187.509 166.394L191.58 161.406C191.644 161.28 191.733 161.168 191.841 161.076C191.95 160.985 192.075 160.915 192.21 160.872C192.345 160.829 192.487 160.812 192.629 160.824C192.77 160.836 192.908 160.875 193.034 160.94C193.675 161.164 193.675 161.475 193.675 162.269Z" fill="url(#paint4_radial)"/>
<path d="M204.881 169.258C204.895 170.122 204.65 170.969 204.179 171.693C203.708 172.418 203.031 172.986 202.235 173.326C201.439 173.666 200.559 173.762 199.708 173.602C198.857 173.442 198.073 173.033 197.455 172.428C196.838 171.822 196.416 171.047 196.241 170.202C196.067 169.356 196.15 168.478 196.478 167.679C196.806 166.881 197.365 166.197 198.084 165.716C198.804 165.235 199.65 164.978 200.516 164.978C201.087 164.966 201.654 165.068 202.185 165.277C202.715 165.487 203.198 165.801 203.605 166.2C204.012 166.599 204.335 167.075 204.554 167.601C204.773 168.126 204.884 168.69 204.881 169.258ZM197.901 169.258C197.901 170.984 199.056 172.135 200.516 172.135C201.977 172.135 203.132 170.984 203.132 169.258C203.132 167.532 202.006 166.411 200.516 166.411C199.027 166.411 197.924 167.567 197.924 169.258H197.901Z" fill="url(#paint5_radial)"/>
<path d="M208.983 160.715V172.555C208.983 173.13 208.81 173.315 208.1 173.315C207.39 173.315 207.199 173.107 207.199 172.555V160.715C207.199 160.14 207.39 159.956 208.1 159.956C208.81 159.956 208.983 160.163 208.983 160.715Z" fill="url(#paint6_radial)"/>
<path d="M217.348 169.673H213.07C213.08 170.017 213.16 170.356 213.306 170.668C213.452 170.98 213.66 171.26 213.917 171.489C214.175 171.719 214.477 171.893 214.805 172.002C215.133 172.111 215.48 172.153 215.824 172.124C216.419 172.104 217.005 171.971 217.55 171.732C218.087 171.508 218.399 171.491 218.607 171.957C218.884 172.532 218.676 172.716 218.295 172.923C215.801 174.287 211.367 173.545 211.367 169.299C211.367 166.997 212.857 164.984 215.524 164.967C219.513 164.926 220.206 169.673 217.348 169.673ZM213.088 168.482H216.811C218.093 168.482 217.487 166.342 215.495 166.359C214.9 166.35 214.324 166.562 213.878 166.955C213.433 167.348 213.151 167.892 213.088 168.482Z" fill="url(#paint7_radial)"/>
<path d="M227.534 165.582C227.863 165.772 228.054 165.927 227.742 166.479C227.43 167.032 227.165 166.945 226.72 166.755C225.179 166.03 222.546 166.41 222.564 169.293C222.564 171.985 225.248 172.658 226.997 171.674C227.482 171.416 227.707 171.364 228.019 171.83C228.331 172.296 228.158 172.572 227.811 172.796C225.283 174.419 220.814 173.435 220.797 169.275C220.78 165.029 225.213 164.305 227.534 165.582Z" fill="url(#paint8_radial)"/>
<path d="M230.184 165.979C230.184 165.404 230.305 165.202 231.067 165.202C231.829 165.202 231.967 165.427 231.967 165.979V169.845C231.967 171.416 232.781 172.106 233.925 172.146C234.625 172.161 235.32 172.032 235.968 171.767V165.979C235.968 165.404 236.107 165.202 236.869 165.202C237.631 165.202 237.769 165.427 237.769 165.979V171.864C237.77 172.105 237.69 172.339 237.543 172.529C237.395 172.72 237.189 172.856 236.955 172.917C236.021 173.323 235.013 173.534 233.994 173.539C231.95 173.539 230.184 172.486 230.184 169.81V165.979Z" fill="url(#paint9_radial)"/>
<path d="M242.237 160.715V172.555C242.237 173.13 242.064 173.315 241.354 173.315C240.644 173.315 240.453 173.107 240.453 172.555V160.715C240.453 160.14 240.644 159.956 241.354 159.956C242.064 159.956 242.237 160.163 242.237 160.715Z" fill="url(#paint10_radial)"/>
<path d="M250.604 169.673H246.326C246.335 170.017 246.416 170.356 246.561 170.668C246.707 170.98 246.915 171.26 247.173 171.489C247.431 171.719 247.733 171.893 248.061 172.002C248.388 172.111 248.735 172.153 249.079 172.123C249.664 172.104 250.24 171.975 250.777 171.744C251.314 171.519 251.625 171.502 251.833 171.968C252.11 172.543 251.903 172.728 251.521 172.935C249.028 174.298 244.594 173.556 244.594 169.31C244.594 167.009 246.083 164.995 248.75 164.978C252.768 164.926 253.461 169.673 250.604 169.673ZM246.343 168.482H250.067C251.348 168.482 250.742 166.341 248.75 166.359C248.156 166.35 247.579 166.562 247.134 166.955C246.688 167.348 246.406 167.892 246.343 168.482Z" fill="url(#paint11_radial)"/>
<path d="M350.27 169.368C350.27 168.084 350.652 166.829 351.368 165.762C352.083 164.695 353.1 163.863 354.29 163.372C355.48 162.881 356.79 162.752 358.053 163.003C359.316 163.253 360.476 163.871 361.387 164.779C362.298 165.686 362.918 166.843 363.169 168.102C363.421 169.36 363.292 170.665 362.799 171.851C362.306 173.037 361.471 174.05 360.4 174.764C359.329 175.477 358.07 175.857 356.782 175.857C355.923 175.871 355.07 175.713 354.274 175.392C353.477 175.071 352.754 174.593 352.146 173.988C351.539 173.382 351.06 172.661 350.737 171.868C350.415 171.074 350.256 170.224 350.27 169.368ZM361.332 169.368C361.332 166.52 359.34 164.5 356.782 164.5C354.225 164.5 352.21 166.52 352.21 169.368C352.21 172.215 354.213 174.235 356.782 174.235C359.351 174.235 361.332 172.233 361.332 169.368Z" fill="url(#paint12_radial)"/>
<path d="M370.302 168.349C370.204 168.815 370.031 168.925 369.725 168.925C369.101 168.821 368.154 168.579 367.415 169.028V174.839C367.415 175.414 367.294 175.616 366.538 175.616C365.782 175.616 365.632 175.391 365.632 174.839V168.884C365.602 168.616 365.674 168.345 365.834 168.127C365.995 167.909 366.231 167.758 366.498 167.705C367.596 167.239 368.826 167.183 369.961 167.55C370.325 167.705 370.423 167.883 370.302 168.349Z" fill="url(#paint13_radial)"/>
<path d="M377.905 168.039L378.482 167.504C378.794 167.21 379.106 167.02 379.522 167.452C379.937 167.883 379.764 168.16 379.4 168.47L378.863 168.919C379.404 169.65 379.701 170.531 379.712 171.439C379.711 171.998 379.592 172.551 379.365 173.062C379.137 173.573 378.805 174.031 378.39 174.408C378.771 174.677 379.077 175.038 379.279 175.458C379.481 175.878 379.573 176.342 379.545 176.807C379.452 178.464 378.153 180 375.648 180C373.673 180 372.184 179.12 371.526 177.825C371.335 177.463 371.387 177.25 371.941 176.979C372.496 176.709 372.634 176.876 372.877 177.169C373.178 177.592 373.579 177.934 374.044 178.166C374.509 178.398 375.024 178.512 375.544 178.498C377.085 178.498 377.882 177.67 377.963 176.772C377.996 176.456 377.943 176.138 377.81 175.849C377.677 175.561 377.468 175.313 377.207 175.133C376.649 175.416 376.032 175.564 375.405 175.564C374.845 175.585 374.287 175.493 373.763 175.294C373.24 175.094 372.762 174.792 372.358 174.404C371.955 174.017 371.634 173.552 371.414 173.038C371.195 172.524 371.082 171.972 371.082 171.413C371.082 170.855 371.195 170.302 371.414 169.788C371.634 169.274 371.955 168.809 372.358 168.422C372.762 168.034 373.24 167.732 373.763 167.533C374.287 167.333 374.845 167.241 375.405 167.262C376.303 167.233 377.183 167.507 377.905 168.039ZM372.848 171.422C372.882 171.915 373.059 172.387 373.359 172.781C373.658 173.175 374.066 173.473 374.534 173.639C375.001 173.805 375.506 173.831 375.988 173.715C376.47 173.598 376.907 173.344 377.246 172.983C377.585 172.622 377.811 172.171 377.896 171.684C377.981 171.197 377.922 170.696 377.725 170.242C377.528 169.789 377.203 169.402 376.789 169.13C376.374 168.859 375.89 168.713 375.394 168.712C375.046 168.717 374.703 168.792 374.385 168.932C374.067 169.072 373.78 169.275 373.543 169.527C373.305 169.78 373.121 170.079 373.002 170.404C372.882 170.73 372.83 171.076 372.848 171.422Z" fill="url(#paint14_radial)"/>
<path d="M389.112 168.09C389.337 168.148 389.534 168.284 389.667 168.474C389.801 168.664 389.862 168.895 389.839 169.126V174.879C389.839 175.363 389.706 175.587 389.014 175.587C388.321 175.587 388.2 175.345 388.2 175.012V174.494C387.374 175.315 386.265 175.791 385.099 175.823C383.125 175.788 381.48 174.183 381.48 171.594C381.446 171.019 381.534 170.442 381.738 169.903C381.942 169.363 382.258 168.873 382.664 168.463C383.071 168.052 383.559 167.732 384.098 167.522C384.637 167.312 385.214 167.218 385.792 167.245C386.949 167.271 388.084 167.56 389.112 168.09ZM383.241 171.577C383.241 173.303 384.228 174.321 385.475 174.373C385.957 174.373 386.434 174.271 386.873 174.072C387.312 173.874 387.703 173.584 388.021 173.222V169.27C387.299 168.929 386.51 168.752 385.711 168.752C384.395 168.746 383.241 169.747 383.241 171.577Z" fill="url(#paint15_radial)"/>
<path d="M396.385 167.262C398.55 167.296 400.264 168.412 400.264 171.024V174.839C400.264 175.414 400.143 175.615 399.364 175.615C398.584 175.615 398.463 175.391 398.463 174.839V170.99C398.463 169.402 397.58 168.689 396.315 168.689C395.622 168.698 394.935 168.833 394.289 169.085V174.839C394.289 175.414 394.168 175.615 393.412 175.615C392.655 175.615 392.505 175.391 392.505 174.839V168.97C392.481 168.733 392.543 168.494 392.679 168.298C392.816 168.102 393.018 167.961 393.25 167.9C394.247 167.497 395.309 167.281 396.385 167.262Z" fill="url(#paint16_radial)"/>
<path d="M405.116 163.965C405.116 164.181 405.052 164.391 404.931 164.57C404.811 164.749 404.641 164.888 404.441 164.97C404.241 165.053 404.021 165.074 403.81 165.031C403.598 164.989 403.403 164.885 403.251 164.732C403.099 164.58 402.995 164.385 402.954 164.174C402.912 163.963 402.935 163.744 403.018 163.545C403.102 163.347 403.243 163.177 403.423 163.058C403.603 162.94 403.814 162.877 404.03 162.878C404.173 162.878 404.315 162.906 404.447 162.961C404.579 163.016 404.699 163.096 404.8 163.197C404.901 163.298 404.981 163.418 405.035 163.55C405.089 163.682 405.116 163.823 405.116 163.965ZM404.943 168.28V174.856C404.943 175.432 404.752 175.616 404.03 175.616C403.309 175.616 403.141 175.409 403.141 174.856V168.28C403.141 167.705 403.332 167.521 404.03 167.521C404.729 167.521 404.943 167.705 404.943 168.28Z" fill="url(#paint17_radial)"/>
<path d="M413.412 168.856C412.944 169.391 412.615 169.132 412.217 168.96C411.195 168.476 409.099 168.476 409.099 169.616C409.099 170.358 410.208 170.53 411.368 170.91C413.065 171.485 414.105 172.222 414.053 173.551C413.914 176.261 409.584 176.485 407.702 174.88C407.615 174.831 407.543 174.762 407.491 174.677C407.439 174.593 407.41 174.496 407.407 174.398C407.403 174.299 407.425 174.201 407.471 174.113C407.517 174.025 407.584 173.95 407.668 173.896C408.049 173.533 408.308 173.689 408.585 173.861C409.211 174.251 409.927 174.471 410.664 174.5C411.599 174.552 412.465 174.258 412.465 173.499C412.465 172.74 411.391 172.584 409.919 172.084C408.637 171.669 407.512 170.979 407.529 169.633C407.564 167.009 411.57 166.819 413.244 167.959C413.585 168.16 413.839 168.367 413.412 168.856Z" fill="url(#paint18_radial)"/>
<path d="M416.32 174.839V168.971C416.32 168.395 416.511 168.228 416.996 168.004C417.936 167.549 418.964 167.301 420.009 167.279C421.036 167.216 422.054 167.502 422.896 168.09C423.856 167.577 424.924 167.299 426.013 167.279C428.022 167.279 429.598 168.505 429.598 170.921V174.839C429.598 175.414 429.477 175.616 428.698 175.616C427.918 175.616 427.797 175.391 427.797 174.839V170.886C427.797 169.437 427.035 168.764 425.944 168.712C425.157 168.713 424.383 168.91 423.693 169.287C423.843 169.726 423.919 170.187 423.918 170.651V174.827C423.918 175.403 423.796 175.604 423.017 175.604C422.238 175.604 422.117 175.38 422.117 174.827V170.616C422.117 169.253 421.32 168.7 420.177 168.683C419.459 168.697 418.75 168.837 418.081 169.097V174.85C418.081 175.426 417.96 175.627 417.198 175.627C416.436 175.627 416.32 175.391 416.32 174.839Z" fill="url(#paint19_radial)"/>
<path d="M543.425 174.033C544.002 174.033 544.204 174.085 544.204 174.81C544.204 175.535 544.031 175.57 543.425 175.57H537.138C536.56 175.57 536.289 175.328 536.289 174.776V164.051C536.289 163.378 536.341 163.137 537.207 163.137C538.073 163.137 538.142 163.378 538.142 164.051V174.033H543.425Z" fill="url(#paint20_radial)"/>
<path d="M552.915 168.09C553.139 168.149 553.335 168.286 553.469 168.475C553.602 168.665 553.663 168.896 553.642 169.126V174.879C553.642 175.363 553.503 175.587 552.811 175.587C552.118 175.587 551.997 175.345 551.997 175.012V174.494C551.171 175.315 550.062 175.791 548.896 175.823C546.922 175.788 545.277 174.183 545.277 171.594C545.243 171.019 545.331 170.442 545.535 169.903C545.739 169.363 546.055 168.873 546.461 168.463C546.868 168.052 547.356 167.732 547.895 167.522C548.434 167.312 549.011 167.218 549.589 167.245C550.748 167.272 551.885 167.561 552.915 168.09ZM547.061 171.577C547.061 173.303 548.048 174.321 549.295 174.373C549.777 174.373 550.254 174.271 550.693 174.072C551.132 173.874 551.523 173.584 551.841 173.222V169.27C551.119 168.929 550.33 168.752 549.531 168.752C548.186 168.746 547.061 169.747 547.061 171.577Z" fill="url(#paint21_radial)"/>
<path d="M563.738 168.28V176.582C563.738 180.241 559.495 180.69 557.07 179.154C556.741 178.946 556.568 178.688 556.88 178.187C557.191 177.687 557.457 177.721 557.867 177.945C559.633 178.895 561.908 178.791 561.908 176.53V175.379C561.157 175.691 560.349 175.844 559.535 175.828C557.665 175.742 556.141 174.62 556.141 172.117V168.28C556.141 167.745 556.262 167.521 557.041 167.521C557.821 167.521 557.925 167.745 557.925 168.28V172.129C557.925 173.665 558.739 174.43 559.916 174.493C560.613 174.474 561.296 174.291 561.908 173.958V168.28C561.908 167.745 562.047 167.521 562.809 167.521C563.571 167.521 563.738 167.745 563.738 168.28Z" fill="url(#paint22_radial)"/>
<path d="M574.647 171.56C574.66 172.423 574.416 173.27 573.945 173.995C573.474 174.719 572.797 175.287 572.001 175.627C571.205 175.967 570.325 176.063 569.474 175.903C568.623 175.743 567.838 175.334 567.221 174.729C566.604 174.123 566.181 173.349 566.007 172.503C565.833 171.657 565.915 170.779 566.243 169.981C566.572 169.182 567.131 168.498 567.85 168.017C568.569 167.536 569.416 167.279 570.282 167.279C570.853 167.267 571.42 167.369 571.951 167.579C572.481 167.789 572.964 168.102 573.371 168.501C573.778 168.9 574.1 169.377 574.319 169.902C574.539 170.427 574.65 170.991 574.647 171.56ZM567.667 171.56C567.667 173.286 568.821 174.436 570.282 174.436C571.743 174.436 572.897 173.286 572.897 171.56C572.897 169.834 571.743 168.712 570.282 168.712C568.821 168.712 567.667 169.868 567.667 171.56Z" fill="url(#paint23_radial)"/>
<path d="M576.812 168.281C576.812 167.705 576.934 167.504 577.696 167.504C578.458 167.504 578.596 167.728 578.596 168.281V172.147C578.596 173.717 579.41 174.408 580.553 174.448C581.254 174.463 581.949 174.333 582.597 174.068V168.281C582.597 167.705 582.736 167.504 583.498 167.504C584.26 167.504 584.398 167.728 584.398 168.281V174.166C584.399 174.407 584.319 174.64 584.172 174.831C584.024 175.021 583.818 175.158 583.584 175.219C582.65 175.624 581.642 175.836 580.623 175.84C578.579 175.84 576.812 174.788 576.812 172.112V168.281Z" fill="url(#paint24_radial)"/>
<path d="M589.199 165.979V167.567H590.498C590.913 167.567 591.075 167.705 591.075 168.291C591.075 168.878 590.884 169.016 590.498 169.016H589.216V173.435C589.216 174.419 590.22 174.586 590.861 174.281C591.329 174.056 591.554 174.108 591.796 174.591C592.039 175.075 591.987 175.247 591.589 175.454C590.047 176.3 587.432 175.938 587.432 173.556V169.016H586.855C586.439 169.016 586.277 168.878 586.277 168.291C586.277 167.705 586.468 167.567 586.855 167.567H587.478V165.979C587.478 165.444 587.634 165.219 588.344 165.219C589.054 165.219 589.199 165.432 589.199 165.979Z" fill="url(#paint25_radial)"/>
<path d="M718.486 163.154C719.506 163.154 720.484 163.558 721.205 164.276C721.926 164.995 722.331 165.969 722.331 166.985C722.331 168.002 721.926 168.976 721.205 169.695C720.484 170.413 719.506 170.817 718.486 170.817H715.732V174.683C715.732 175.356 715.68 175.598 714.797 175.598C713.914 175.598 713.879 175.356 713.879 174.683V163.948C713.879 163.372 714.156 163.154 714.71 163.154H718.486ZM715.732 169.298H718.122C718.431 169.32 718.741 169.275 719.031 169.167C719.32 169.058 719.584 168.89 719.803 168.672C720.021 168.453 720.191 168.191 720.299 167.902C720.408 167.613 720.453 167.305 720.431 166.997C720.447 166.691 720.398 166.384 720.288 166.098C720.177 165.812 720.008 165.552 719.79 165.335C719.572 165.118 719.312 164.949 719.024 164.839C718.737 164.729 718.43 164.68 718.122 164.696H715.732V169.298Z" fill="url(#paint26_radial)"/>
<path d="M731.059 168.09C731.284 168.149 731.48 168.286 731.613 168.475C731.746 168.665 731.808 168.896 731.786 169.126V174.879C731.786 175.363 731.648 175.587 730.955 175.587C730.262 175.587 730.141 175.345 730.141 175.012V174.494C729.316 175.315 728.207 175.791 727.041 175.823C725.066 175.788 723.421 174.183 723.421 171.594C723.387 171.019 723.475 170.442 723.679 169.903C723.883 169.363 724.199 168.873 724.606 168.463C725.012 168.052 725.501 167.732 726.04 167.522C726.579 167.312 727.156 167.218 727.734 167.245C728.892 167.272 730.029 167.561 731.059 168.09ZM725.205 171.577C725.205 173.303 726.192 174.321 727.439 174.373C727.921 174.373 728.398 174.271 728.837 174.072C729.276 173.874 729.668 173.584 729.985 173.222V169.27C729.263 168.929 728.475 168.752 727.676 168.752C726.331 168.746 725.205 169.747 725.205 171.577Z" fill="url(#paint27_radial)"/>
<path d="M740.778 168.039L741.356 167.504C741.667 167.21 741.979 167.02 742.395 167.452C742.81 167.883 742.637 168.16 742.273 168.47L741.737 168.919C742.28 169.648 742.577 170.531 742.585 171.439C742.584 171.998 742.467 172.55 742.24 173.061C742.014 173.572 741.683 174.031 741.269 174.408C741.651 174.676 741.958 175.037 742.16 175.457C742.363 175.877 742.453 176.342 742.424 176.807C742.337 178.464 741.038 180 738.527 180C736.552 180 735.063 179.12 734.405 177.825C734.214 177.463 734.266 177.25 734.82 176.979C735.375 176.709 735.513 176.876 735.756 177.169C736.057 177.592 736.457 177.934 736.923 178.166C737.388 178.398 737.903 178.512 738.423 178.498C739.964 178.498 740.732 177.67 740.848 176.772C740.879 176.456 740.825 176.137 740.691 175.849C740.557 175.56 740.348 175.313 740.085 175.133C739.528 175.417 738.91 175.565 738.284 175.564C737.724 175.585 737.166 175.493 736.642 175.294C736.119 175.094 735.641 174.792 735.237 174.404C734.834 174.017 734.512 173.552 734.293 173.038C734.074 172.524 733.961 171.972 733.961 171.413C733.961 170.855 734.074 170.302 734.293 169.788C734.512 169.274 734.834 168.809 735.237 168.422C735.641 168.034 736.119 167.732 736.642 167.533C737.166 167.333 737.724 167.241 738.284 167.262C739.179 167.239 740.056 167.512 740.778 168.039ZM735.738 171.422C735.771 171.916 735.948 172.391 736.248 172.787C736.548 173.183 736.957 173.482 737.425 173.649C737.894 173.816 738.401 173.843 738.885 173.726C739.368 173.61 739.807 173.355 740.147 172.993C740.487 172.631 740.714 172.178 740.799 171.689C740.884 171.201 740.823 170.698 740.626 170.243C740.428 169.788 740.1 169.401 739.685 169.129C739.269 168.857 738.782 168.712 738.284 168.712C737.937 168.717 737.593 168.792 737.275 168.932C736.957 169.072 736.671 169.275 736.433 169.527C736.196 169.78 736.012 170.079 735.892 170.404C735.773 170.73 735.72 171.076 735.738 171.422Z" fill="url(#paint28_radial)"/>
<path d="M750.369 171.974H746.091C746.101 172.319 746.181 172.657 746.327 172.97C746.473 173.282 746.681 173.561 746.938 173.791C747.196 174.02 747.498 174.195 747.826 174.304C748.154 174.413 748.501 174.454 748.845 174.425C749.43 174.406 750.006 174.277 750.542 174.046C751.079 173.821 751.391 173.804 751.599 174.27C751.876 174.845 751.668 175.029 751.287 175.236C748.793 176.6 744.359 175.858 744.359 171.612C744.359 169.311 745.849 167.297 748.516 167.28C752.534 167.228 753.227 171.974 750.369 171.974ZM746.109 170.783H749.832C751.114 170.783 750.508 168.643 748.516 168.66C747.921 168.651 747.345 168.864 746.899 169.257C746.454 169.65 746.172 170.194 746.109 170.783Z" fill="url(#paint29_radial)"/>
<path d="M759.793 168.856C759.325 169.391 758.996 169.132 758.598 168.96C757.576 168.476 755.481 168.476 755.481 169.616C755.481 170.358 756.589 170.53 757.749 170.91C759.447 171.485 760.486 172.222 760.434 173.551C760.295 176.261 755.966 176.485 754.112 174.88C754.026 174.831 753.953 174.762 753.901 174.677C753.849 174.593 753.82 174.496 753.817 174.398C753.813 174.299 753.835 174.201 753.881 174.113C753.927 174.025 753.995 173.95 754.078 173.896C754.459 173.533 754.718 173.689 754.996 173.861C755.621 174.251 756.337 174.471 757.074 174.5C758.009 174.552 758.875 174.258 758.875 173.499C758.875 172.74 757.801 172.584 756.329 172.084C755.048 171.669 753.922 170.979 753.939 169.633C753.974 167.009 757.98 166.819 759.655 167.959C759.966 168.16 760.191 168.367 759.793 168.856Z" fill="url(#paint30_radial)"/>
<defs>
<radialGradient id="paint0_radial" cx="0" cy="0" r="1" gradientUnits="userSpaceOnUse" gradientTransform="translate(27.9544 160.577) scale(16.303 19.4156)">
<stop stop-color="#565656" stop-opacity="0.988"/>
<stop offset="1" stop-color="#2B2B2B"/>
</radialGradient>
<radialGradient id="paint1_radial" cx="0" cy="0" r="1" gradientUnits="userSpaceOnUse" gradientTransform="translate(35.8663 161.457) scale(8.27678 18.2504)">
<stop stop-color="#565656" stop-opacity="0.988"/>
<stop offset="1" stop-color="#2B2B2B"/>
</radialGradient>
<radialGradient id="paint2_radial" cx="0" cy="0" r="1" gradientUnits="userSpaceOnUse" gradientTransform="translate(43.4328 163.666) scale(13.7015 14.5761)">
<stop stop-color="#565656" stop-opacity="0.988"/>
<stop offset="1" stop-color="#2B2B2B"/>
</radialGradient>
<radialGradient id="paint3_radial" cx="0" cy="0" r="1" gradientUnits="userSpaceOnUse" gradientTransform="translate(55.4227 163.676) scale(20.109 14.3102)">
<stop stop-color="#565656" stop-opacity="0.988"/>
<stop offset="1" stop-color="#2B2B2B"/>
</radialGradient>
<radialGradient id="paint4_radial" cx="0" cy="0" r="1" gradientUnits="userSpaceOnUse" gradientTransform="translate(187.509 160.82) scale(20.5811 20.8245)">
<stop stop-color="#565656" stop-opacity="0.988"/>
<stop offset="1" stop-color="#2B2B2B"/>
</radialGradient>
<radialGradient id="paint5_radial" cx="0" cy="0" r="1" gradientUnits="userSpaceOnUse" gradientTransform="translate(200.517 164.977) scale(14.5687 14.5202)">
<stop stop-color="#565656" stop-opacity="0.988"/>
<stop offset="1" stop-color="#2B2B2B"/>
</radialGradient>
<radialGradient id="paint6_radial" cx="0" cy="0" r="1" gradientUnits="userSpaceOnUse" gradientTransform="translate(208.091 159.956) scale(2.97734 22.2962)">
<stop stop-color="#565656" stop-opacity="0.988"/>
<stop offset="1" stop-color="#2B2B2B"/>
</radialGradient>
<radialGradient id="paint7_radial" cx="0" cy="0" r="1" gradientUnits="userSpaceOnUse" gradientTransform="translate(215.229 164.966) scale(12.8896 14.3168)">
<stop stop-color="#565656" stop-opacity="0.988"/>
<stop offset="1" stop-color="#2B2B2B"/>
</radialGradient>
<radialGradient id="paint8_radial" cx="0" cy="0" r="1" gradientUnits="userSpaceOnUse" gradientTransform="translate(224.489 165.013) scale(12.3255 14.2279)">
<stop stop-color="#565656" stop-opacity="0.988"/>
<stop offset="1" stop-color="#2B2B2B"/>
</radialGradient>
<radialGradient id="paint9_radial" cx="0" cy="0" r="1" gradientUnits="userSpaceOnUse" gradientTransform="translate(233.977 165.202) scale(12.6608 13.9135)">
<stop stop-color="#565656" stop-opacity="0.988"/>
<stop offset="1" stop-color="#2B2B2B"/>
</radialGradient>
<radialGradient id="paint10_radial" cx="0" cy="0" r="1" gradientUnits="userSpaceOnUse" gradientTransform="translate(241.345 159.956) scale(2.97731 22.2962)">
<stop stop-color="#565656" stop-opacity="0.988"/>
<stop offset="1" stop-color="#2B2B2B"/>
</radialGradient>
<radialGradient id="paint11_radial" cx="0" cy="0" r="1" gradientUnits="userSpaceOnUse" gradientTransform="translate(248.469 164.978) scale(12.9345 14.3171)">
<stop stop-color="#565656" stop-opacity="0.988"/>
<stop offset="1" stop-color="#2B2B2B"/>
</radialGradient>
<radialGradient id="paint12_radial" cx="0" cy="0" r="1" gradientUnits="userSpaceOnUse" gradientTransform="translate(356.782 162.878) scale(21.7387 21.664)">
<stop stop-color="#565656" stop-opacity="0.988"/>
<stop offset="1" stop-color="#2B2B2B"/>
</radialGradient>
<radialGradient id="paint13_radial" cx="0" cy="0" r="1" gradientUnits="userSpaceOnUse" gradientTransform="translate(367.988 167.31) scale(7.88826 13.8621)">
<stop stop-color="#565656" stop-opacity="0.988"/>
<stop offset="1" stop-color="#2B2B2B"/>
</radialGradient>
<radialGradient id="paint14_radial" cx="0" cy="0" r="1" gradientUnits="userSpaceOnUse" gradientTransform="translate(375.423 167.199) scale(14.4891 21.365)">
<stop stop-color="#565656" stop-opacity="0.988"/>
<stop offset="1" stop-color="#2B2B2B"/>
</radialGradient>
<radialGradient id="paint15_radial" cx="0" cy="0" r="1" gradientUnits="userSpaceOnUse" gradientTransform="translate(385.658 167.24) scale(13.9714 14.3243)">
<stop stop-color="#565656" stop-opacity="0.988"/>
<stop offset="1" stop-color="#2B2B2B"/>
</radialGradient>
<radialGradient id="paint16_radial" cx="0" cy="0" r="1" gradientUnits="userSpaceOnUse" gradientTransform="translate(396.382 167.262) scale(12.9586 13.9423)">
<stop stop-color="#565656" stop-opacity="0.988"/>
<stop offset="1" stop-color="#2B2B2B"/>
</radialGradient>
<radialGradient id="paint17_radial" cx="0" cy="0" r="1" gradientUnits="userSpaceOnUse" gradientTransform="translate(404.025 162.878) scale(3.64203 21.2594)">
<stop stop-color="#565656" stop-opacity="0.988"/>
<stop offset="1" stop-color="#2B2B2B"/>
</radialGradient>
<radialGradient id="paint18_radial" cx="0" cy="0" r="1" gradientUnits="userSpaceOnUse" gradientTransform="translate(410.73 167.296) scale(11.0959 14.3373)">
<stop stop-color="#565656" stop-opacity="0.988"/>
<stop offset="1" stop-color="#2B2B2B"/>
</radialGradient>
<radialGradient id="paint19_radial" cx="0" cy="0" r="1" gradientUnits="userSpaceOnUse" gradientTransform="translate(422.959 167.271) scale(22.1612 13.9473)">
<stop stop-color="#565656" stop-opacity="0.988"/>
<stop offset="1" stop-color="#2B2B2B"/>
</radialGradient>
<radialGradient id="paint20_radial" cx="0" cy="0" r="1" gradientUnits="userSpaceOnUse" gradientTransform="translate(540.247 163.137) scale(13.2099 20.7504)">
<stop stop-color="#565656" stop-opacity="0.988"/>
<stop offset="1" stop-color="#2B2B2B"/>
</radialGradient>
<radialGradient id="paint21_radial" cx="0" cy="0" r="1" gradientUnits="userSpaceOnUse" gradientTransform="translate(549.458 167.24) scale(13.9805 14.3243)">
<stop stop-color="#565656" stop-opacity="0.988"/>
<stop offset="1" stop-color="#2B2B2B"/>
</radialGradient>
<radialGradient id="paint22_radial" cx="0" cy="0" r="1" gradientUnits="userSpaceOnUse" gradientTransform="translate(559.939 167.521) scale(12.6801 20.8025)">
<stop stop-color="#565656" stop-opacity="0.988"/>
<stop offset="1" stop-color="#2B2B2B"/>
</radialGradient>
<radialGradient id="paint23_radial" cx="0" cy="0" r="1" gradientUnits="userSpaceOnUse" gradientTransform="translate(570.283 167.278) scale(14.5689 14.5201)">
<stop stop-color="#565656" stop-opacity="0.988"/>
<stop offset="1" stop-color="#2B2B2B"/>
</radialGradient>
<radialGradient id="paint24_radial" cx="0" cy="0" r="1" gradientUnits="userSpaceOnUse" gradientTransform="translate(580.605 167.504) scale(12.6608 13.9136)">
<stop stop-color="#565656" stop-opacity="0.988"/>
<stop offset="1" stop-color="#2B2B2B"/>
</radialGradient>
<radialGradient id="paint25_radial" cx="0" cy="0" r="1" gradientUnits="userSpaceOnUse" gradientTransform="translate(589.11 165.219) scale(9.45563 17.7736)">
<stop stop-color="#565656" stop-opacity="0.988"/>
<stop offset="1" stop-color="#2B2B2B"/>
</radialGradient>
<radialGradient id="paint26_radial" cx="0" cy="0" r="1" gradientUnits="userSpaceOnUse" gradientTransform="translate(718.105 163.154) scale(14.1063 20.7695)">
<stop stop-color="#565656" stop-opacity="0.988"/>
<stop offset="1" stop-color="#2B2B2B"/>
</radialGradient>
<radialGradient id="paint27_radial" cx="0" cy="0" r="1" gradientUnits="userSpaceOnUse" gradientTransform="translate(727.602 167.24) scale(13.9803 14.3243)">
<stop stop-color="#565656" stop-opacity="0.988"/>
<stop offset="1" stop-color="#2B2B2B"/>
</radialGradient>
<radialGradient id="paint28_radial" cx="0" cy="0" r="1" gradientUnits="userSpaceOnUse" gradientTransform="translate(738.299 167.199) scale(14.4794 21.365)">
<stop stop-color="#565656" stop-opacity="0.988"/>
<stop offset="1" stop-color="#2B2B2B"/>
</radialGradient>
<radialGradient id="paint29_radial" cx="0" cy="0" r="1" gradientUnits="userSpaceOnUse" gradientTransform="translate(748.234 167.279) scale(12.9347 14.317)">
<stop stop-color="#565656" stop-opacity="0.988"/>
<stop offset="1" stop-color="#2B2B2B"/>
</radialGradient>
<radialGradient id="paint30_radial" cx="0" cy="0" r="1" gradientUnits="userSpaceOnUse" gradientTransform="translate(757.126 167.296) scale(11.0477 14.3373)">
<stop stop-color="#565656" stop-opacity="0.988"/>
<stop offset="1" stop-color="#2B2B2B"/>
</radialGradient>
</defs>
</svg>
