<svg width="17" height="17" viewBox="0 0 17 17" fill="none" xmlns="http://www.w3.org/2000/svg">
<path d="M17 0H0V17H17V0Z" fill="white"/>
<path d="M17 0H0V17H17V0Z" fill="white"/>
<path d="M13.4688 0.53125H3.53125C1.8744 0.53125 0.53125 1.8744 0.53125 3.53125V13.4688C0.53125 15.1256 1.8744 16.4688 3.53125 16.4688H13.4688C15.1256 16.4688 16.4688 15.1256 16.4688 13.4688V3.53125C16.4688 1.8744 15.1256 0.53125 13.4688 0.53125Z" fill="#FFA012"/>
<path d="M14.1315 5.77946L12.6289 4.27686L5.8672 11.0386L7.3698 12.5412L14.1315 5.77946Z" fill="white"/>
<path d="M8.87499 11.0386L4.36719 6.53076L2.86459 8.03336L7.37239 12.5412L8.87499 11.0386Z" fill="white"/>
</svg>
