<svg width="125" height="30" viewBox="0 0 125 30" fill="none" xmlns="http://www.w3.org/2000/svg">
<path d="M125 0H0V30H125V0Z" fill="#0068B4"/>
<path d="M38.8398 14.2031C39.4141 14.2031 39.8607 14.1234 40.1797 13.9639C40.681 13.7132 40.9316 13.262 40.9316 12.6104C40.9316 11.9541 40.665 11.512 40.1318 11.2842C39.8311 11.1566 39.3844 11.0928 38.792 11.0928H36.3652V14.2031H38.8398ZM39.2979 18.8379C40.1318 18.8379 40.7266 18.5964 41.082 18.1133C41.3053 17.8079 41.417 17.4388 41.417 17.0059C41.417 16.2767 41.0911 15.7799 40.4395 15.5156C40.0931 15.3743 39.6351 15.3037 39.0654 15.3037H36.3652V18.8379H39.2979ZM35.0322 9.95801H39.3457C40.5215 9.95801 41.3577 10.3089 41.8545 11.0107C42.1462 11.4255 42.292 11.904 42.292 12.4463C42.292 13.0798 42.112 13.5993 41.752 14.0049C41.5651 14.2191 41.2962 14.415 40.9453 14.5928C41.4603 14.7887 41.8454 15.0098 42.1006 15.2559C42.5518 15.6934 42.7773 16.2972 42.7773 17.0674C42.7773 17.7145 42.5745 18.3001 42.1689 18.8242C41.5628 19.6081 40.599 20 39.2773 20H35.0322V9.95801ZM45.8809 9.95801V16.165C45.8809 16.8942 46.0176 17.5003 46.291 17.9834C46.6966 18.7126 47.3802 19.0771 48.3418 19.0771C49.4948 19.0771 50.2786 18.6829 50.6934 17.8945C50.9167 17.4661 51.0283 16.8896 51.0283 16.165V9.95801H52.4092V15.5977C52.4092 16.8327 52.2428 17.7829 51.9102 18.4482C51.2995 19.6605 50.1465 20.2666 48.4512 20.2666C46.7559 20.2666 45.6051 19.6605 44.999 18.4482C44.6663 17.7829 44.5 16.8327 44.5 15.5977V9.95801H45.8809ZM61.8291 9.95801V11.1543H58.4453V20H57.0645V11.1543H53.6807V9.95801H61.8291ZM70.3877 9.95801V11.1543H67.0039V20H65.623V11.1543H62.2393V9.95801H70.3877ZM75.7266 9.68457C77.4993 9.68457 78.8118 10.2542 79.6641 11.3936C80.3294 12.2822 80.6621 13.4193 80.6621 14.8047C80.6621 16.304 80.2816 17.5505 79.5205 18.5439C78.6273 19.7106 77.3535 20.2939 75.6992 20.2939C74.1543 20.2939 72.9398 19.7835 72.0557 18.7627C71.2673 17.7783 70.873 16.5342 70.873 15.0303C70.873 13.6722 71.2103 12.5101 71.8848 11.5439C72.7507 10.3044 74.0312 9.68457 75.7266 9.68457ZM75.8633 19.0771C77.0618 19.0771 77.9277 18.6488 78.4609 17.792C78.9987 16.9307 79.2676 15.9417 79.2676 14.8252C79.2676 13.6449 78.9577 12.6947 78.3379 11.9746C77.7227 11.2546 76.8796 10.8945 75.8086 10.8945C74.7695 10.8945 73.9219 11.2523 73.2656 11.9678C72.6094 12.6787 72.2812 13.7292 72.2812 15.1191C72.2812 16.2311 72.5615 17.1699 73.1221 17.9355C73.6872 18.6966 74.6009 19.0771 75.8633 19.0771ZM82.2891 9.95801H83.8955L88.9678 18.0928V9.95801H90.2598V20H88.7354L83.5879 11.8721V20H82.2891V9.95801Z" fill="#FCFCFC"/>
</svg>
