<svg width="759" height="501" viewBox="0 0 759 501" fill="none" xmlns="http://www.w3.org/2000/svg">
<path d="M257 437V484H304V437H257ZM297.476 477.476H263.524V443.524H297.476V477.476Z" fill="#FF9D00"/>
<path d="M232 26.4277L219.413 73.7834L266.297 60.8948L232 26.4277Z" fill="#FFC200"/>
<path d="M207 39V79.4L242 59.2L207 39ZM212.5 48.5L231 59.2L212.4 69.9L212.5 48.5Z" fill="#1271FF"/>
<path d="M549.507 57.7603H540.446C539.114 50.5654 536.183 44.1698 532.452 38.3073L538.847 31.9117C540.446 30.3129 540.446 27.9145 538.847 26.5821L527.655 15.3899C526.056 13.7911 523.658 13.7911 522.326 15.3899L515.93 21.7855C510.068 18.0548 503.406 15.1235 496.477 13.5246V4.73073C496.477 2.59889 494.878 1 492.746 1H477.024C474.892 1 473.293 2.59889 473.293 4.73073V13.7911C466.098 15.39 459.703 18.0548 453.84 22.052L446.912 15.3899C445.313 13.7911 442.915 13.7911 441.582 15.3899L430.39 26.5821C428.791 28.181 428.791 30.5793 430.39 31.9117L436.785 38.3073C433.055 44.1698 430.123 50.8319 428.791 57.7603H419.731C417.599 57.7603 416 59.3592 416 61.4911V77.2134C416 79.3452 417.599 80.9441 419.731 80.9441H428.791C430.39 87.8726 433.055 94.5346 436.785 100.397L430.123 107.059C428.525 108.658 428.525 111.056 430.123 112.389L441.316 123.581C442.915 125.18 445.313 125.18 446.645 123.581L453.307 116.919C459.17 120.65 465.565 123.581 472.76 124.913V134.24C472.76 136.372 474.359 137.971 476.491 137.971H492.213C494.345 137.971 495.944 136.372 495.944 134.24V124.913C502.873 123.315 509.535 120.65 515.397 116.919L522.059 123.581C523.658 125.18 526.056 125.18 527.389 123.581L538.581 112.389C540.18 110.79 540.18 108.392 538.581 107.059L532.185 100.664C535.916 94.8011 538.847 88.4056 540.18 81.2106H549.24C551.372 81.2106 552.971 79.6117 552.971 77.4799V61.7575C553.237 59.6257 551.639 57.7603 549.507 57.7603ZM463.434 90.5374C451.708 78.8123 451.708 59.8922 463.434 48.4335C475.159 36.7084 494.079 36.7084 505.537 48.4335C517.263 60.1587 517.263 79.0788 505.537 90.5374C494.079 102.263 475.159 102.263 463.434 90.5374Z" fill="#FFD28E" stroke="#FFA012" stroke-miterlimit="10"/>
<path d="M484.486 88.9384C479.423 88.9384 474.626 87.073 470.629 83.3423L484.486 88.9384Z" fill="#FFD28E"/>
<path d="M484.486 88.9384C479.423 88.9384 474.626 87.073 470.629 83.3423" stroke="#FFA012" stroke-miterlimit="10"/>
<path d="M470.629 55.629C478.357 47.901 490.615 47.901 498.076 55.629C502.34 59.8926 504.205 66.0217 503.672 71.6178" stroke="#FFA012" stroke-miterlimit="10"/>
<path d="M759 343H663V353H759V343Z" fill="#FFC200"/>
<path d="M759 364.7H663V374.7H759V364.7Z" fill="#FF9D00"/>
<path d="M714.349 385H663V395H714.349V385Z" fill="#1271FF"/>
<g clip-path="url(#clip0)">
<path d="M74.3 374C39.3 374 11 402.3 11 437.3C11 472.3 39.3 500.6 74.3 500.6C109.3 500.6 137.6 472.3 137.6 437.3C137.6 402.3 109.2 374 74.3 374ZM74.3 475.7C53.1 475.7 35.9 458.5 35.9 437.3C35.9 416.1 53 398.8 74.3 398.8C95.6 398.8 112.7 416 112.7 437.2C112.7 458.4 95.5 475.7 74.3 475.7Z" fill="#FFC200"/>
</g>
<path d="M727.122 168.648L619.875 114.352L700.647 87.8767L727.122 168.648Z" fill="#FF9D00"/>
<g clip-path="url(#clip1)">
<path d="M470.9 471.9C469.9 471.9 469 471 469 469.9C469 468.9 469.9 468 470.9 468C471.9 468 472.8 468.9 472.8 469.9C472.9 471 472 471.9 470.9 471.9Z" fill="#1271FF"/>
<path d="M489.099 471.9C487.999 471.9 487.199 471 487.199 470C487.099 468.9 487.999 468 489.099 468C490.099 468 490.999 468.9 490.999 469.9C490.999 471 490.099 471.9 489.099 471.9Z" fill="#1271FF"/>
<path d="M507.201 471.9C506.101 471.9 505.301 471 505.301 470C505.301 468.9 506.201 468.1 507.201 468.1C508.201 468.1 509.101 469 509.101 470C509.101 471 508.301 471.9 507.201 471.9Z" fill="#1271FF"/>
<path d="M525.298 471.9C524.198 471.9 523.398 471 523.398 470C523.398 468.9 524.298 468.1 525.298 468.1C526.298 468.1 527.198 469 527.198 470C527.298 471 526.398 471.9 525.298 471.9Z" fill="#1271FF"/>
<path d="M543.502 471.9C542.402 471.9 541.602 471 541.602 470C541.602 468.9 542.502 468.1 543.502 468.1C544.602 468.1 545.402 469 545.402 470C545.402 471 544.502 471.9 543.502 471.9Z" fill="#1271FF"/>
<path d="M561.599 471.9C560.499 471.9 559.699 471 559.699 470C559.699 468.9 560.599 468.1 561.599 468.1C562.699 468.1 563.499 469 563.499 470C563.499 471 562.699 471.9 561.599 471.9Z" fill="#1271FF"/>
<path d="M579.701 471.9C578.601 471.9 577.801 471 577.801 470C577.801 468.9 578.701 468.1 579.701 468.1C580.801 468.1 581.601 469 581.601 470C581.701 471 580.801 471.9 579.701 471.9Z" fill="#1271FF"/>
<path d="M597.9 471.9C596.8 471.9 596 471 596 470C596 468.9 596.9 468.1 597.9 468.1C599 468.1 599.8 469 599.8 470C599.8 471 598.9 471.9 597.9 471.9Z" fill="#1271FF"/>
</g>
<g clip-path="url(#clip2)">
<path d="M1.9 154.9C0.9 154.9 0 154 0 152.9C0 151.9 0.9 151 1.9 151C2.9 151 3.8 151.9 3.8 152.9C3.9 154 3 154.9 1.9 154.9Z" fill="#1271FF"/>
<path d="M20.099 154.9C18.999 154.9 18.199 154 18.199 153C18.099 151.9 18.999 151 20.099 151C21.199 151 21.999 151.9 21.999 152.9C21.999 154 21.099 154.9 20.099 154.9Z" fill="#1271FF"/>
<path d="M38.2008 154.9C37.1008 154.9 36.3008 154 36.3008 153C36.3008 151.9 37.2008 151.1 38.2008 151.1C39.2008 151.1 40.1008 152 40.1008 153C40.1008 154 39.3008 154.9 38.2008 154.9Z" fill="#1271FF"/>
<path d="M56.2984 154.9C55.1984 154.9 54.3984 154 54.3984 153C54.3984 151.9 55.2984 151.1 56.2984 151.1C57.2984 151.1 58.1984 152 58.1984 153C58.2984 154 57.3984 154.9 56.2984 154.9Z" fill="#1271FF"/>
<path d="M74.5016 154.9C73.4016 154.9 72.6016 154 72.6016 153C72.6016 151.9 73.5016 151.1 74.5016 151.1C75.6016 151.1 76.4016 152 76.4016 153C76.4016 154 75.5016 154.9 74.5016 154.9Z" fill="#1271FF"/>
<path d="M92.5992 154.9C91.4992 154.9 90.6992 154 90.6992 153C90.6992 151.9 91.5992 151.1 92.5992 151.1C93.5992 151.1 94.4992 152 94.4992 153C94.4992 154 93.6992 154.9 92.5992 154.9Z" fill="#1271FF"/>
<path d="M1.9 171.4C0.8 171.4 0 170.5 0 169.5C0 168.4 0.9 167.6 1.9 167.6C2.9 167.6 3.8 168.5 3.8 169.5C3.9 170.5 3 171.4 1.9 171.4Z" fill="#1271FF"/>
<path d="M20.0992 171.4C18.9992 171.4 18.1992 170.5 18.1992 169.5C18.1992 168.4 19.0992 167.6 20.0992 167.6C21.0992 167.6 21.9992 168.5 21.9992 169.5C21.9992 170.5 21.0992 171.4 20.0992 171.4Z" fill="#1271FF"/>
<path d="M38.2008 171.4C37.1008 171.4 36.3008 170.5 36.3008 169.5C36.3008 168.4 37.2008 167.6 38.2008 167.6C39.2008 167.6 40.1008 168.5 40.1008 169.5C40.1008 170.5 39.3008 171.4 38.2008 171.4Z" fill="#1271FF"/>
<path d="M56.2984 171.4C55.1984 171.4 54.3984 170.5 54.3984 169.5C54.3984 168.4 55.2984 167.6 56.2984 167.6C57.2984 167.6 58.1984 168.5 58.1984 169.5C58.2984 170.5 57.3984 171.4 56.2984 171.4Z" fill="#1271FF"/>
<path d="M74.5016 171.4C73.4016 171.4 72.6016 170.5 72.6016 169.5C72.6016 168.4 73.5016 167.6 74.5016 167.6C75.6016 167.6 76.4016 168.5 76.4016 169.5C76.4016 170.5 75.5016 171.4 74.5016 171.4Z" fill="#1271FF"/>
<path d="M92.5992 171.4C91.4992 171.4 90.6992 170.5 90.6992 169.5C90.6992 168.4 91.5992 167.6 92.5992 167.6C93.5992 167.6 94.4992 168.5 94.4992 169.5C94.4992 170.5 93.6992 171.4 92.5992 171.4Z" fill="#1271FF"/>
<path d="M1.9 187.9C0.9 187.9 0 187.1 0 186C0 184.9 0.9 184.1 1.9 184.1C2.9 184.1 3.8 185 3.8 186C3.9 187.1 3 187.9 1.9 187.9Z" fill="#1271FF"/>
<path d="M20.0992 187.9C18.9992 187.9 18.1992 187 18.1992 186C18.1992 184.9 19.0992 184.1 20.0992 184.1C21.0992 184.1 21.9992 184.9 21.9992 186C21.9992 187.1 21.0992 187.9 20.0992 187.9Z" fill="#1271FF"/>
<path d="M38.2008 187.9C37.1008 187.9 36.3008 187 36.3008 186C36.3008 184.9 37.2008 184.1 38.2008 184.1C39.2008 184.1 40.1008 185 40.1008 186C40.1008 187.1 39.3008 187.9 38.2008 187.9Z" fill="#1271FF"/>
<path d="M56.2984 187.9C55.1984 187.9 54.3984 187 54.3984 186C54.3984 184.9 55.2984 184.1 56.2984 184.1C57.2984 184.1 58.1984 185 58.1984 186C58.2984 187.1 57.3984 187.9 56.2984 187.9Z" fill="#1271FF"/>
<path d="M74.5016 187.9C73.4016 187.9 72.6016 187 72.6016 186C72.6016 184.9 73.5016 184.1 74.5016 184.1C75.6016 184.1 76.4016 185 76.4016 186C76.4016 187.1 75.5016 187.9 74.5016 187.9Z" fill="#1271FF"/>
<path d="M92.5992 187.9C91.4992 187.9 90.6992 187 90.6992 186C90.6992 184.9 91.5992 184.1 92.5992 184.1C93.5992 184.1 94.4992 185 94.4992 186C94.4992 187.1 93.6992 187.9 92.5992 187.9Z" fill="#1271FF"/>
<path d="M1.9 204.5C0.8 204.5 0 203.6 0 202.6C0 201.5 0.9 200.7 1.9 200.7C2.9 200.7 3.8 201.6 3.8 202.6C3.9 203.6 3 204.5 1.9 204.5Z" fill="#1271FF"/>
<path d="M20.0992 204.5C18.9992 204.5 18.1992 203.6 18.1992 202.6C18.1992 201.5 19.0992 200.7 20.0992 200.7C21.0992 200.7 21.9992 201.6 21.9992 202.6C21.9992 203.6 21.0992 204.5 20.0992 204.5Z" fill="#1271FF"/>
<path d="M38.2008 204.5C37.1008 204.5 36.3008 203.6 36.3008 202.6C36.3008 201.5 37.2008 200.7 38.2008 200.7C39.2008 200.7 40.1008 201.6 40.1008 202.6C40.1008 203.6 39.3008 204.5 38.2008 204.5Z" fill="#1271FF"/>
<path d="M56.2984 204.5C55.1984 204.5 54.3984 203.6 54.3984 202.6C54.3984 201.5 55.2984 200.7 56.2984 200.7C57.2984 200.7 58.1984 201.6 58.1984 202.6C58.2984 203.6 57.3984 204.5 56.2984 204.5Z" fill="#1271FF"/>
<path d="M74.5016 204.5C73.4016 204.5 72.6016 203.6 72.6016 202.6C72.6016 201.5 73.5016 200.7 74.5016 200.7C75.6016 200.7 76.4016 201.6 76.4016 202.6C76.4016 203.6 75.5016 204.5 74.5016 204.5Z" fill="#1271FF"/>
<path d="M92.5992 204.5C91.4992 204.5 90.6992 203.6 90.6992 202.6C90.6992 201.5 91.5992 200.7 92.5992 200.7C93.5992 200.7 94.4992 201.6 94.4992 202.6C94.4992 203.6 93.6992 204.5 92.5992 204.5Z" fill="#1271FF"/>
<path d="M1.9 221C0.9 221 0 220.1 0 219.1C0 218 0.9 217.2 1.9 217.2C2.9 217.2 3.8 218.1 3.8 219.1C3.9 220.1 3 221 1.9 221Z" fill="#1271FF"/>
<path d="M20.0992 221C18.9992 221 18.1992 220.1 18.1992 219.1C18.1992 218 19.0992 217.2 20.0992 217.2C21.0992 217.2 21.9992 218 21.9992 219.1C21.9992 220.1 21.0992 221 20.0992 221Z" fill="#1271FF"/>
<path d="M38.2008 221C37.1008 221 36.3008 220.1 36.3008 219.1C36.3008 218 37.2008 217.2 38.2008 217.2C39.2008 217.2 40.1008 218.1 40.1008 219.1C40.1008 220.1 39.3008 221 38.2008 221Z" fill="#1271FF"/>
<path d="M56.2984 221C55.1984 221 54.3984 220.1 54.3984 219.1C54.3984 218 55.2984 217.2 56.2984 217.2C57.2984 217.2 58.1984 218.1 58.1984 219.1C58.2984 220.1 57.3984 221 56.2984 221Z" fill="#1271FF"/>
<path d="M74.5016 221C73.4016 221 72.6016 220.1 72.6016 219.1C72.6016 218 73.5016 217.2 74.5016 217.2C75.6016 217.2 76.4016 218.1 76.4016 219.1C76.4016 220.1 75.5016 221 74.5016 221Z" fill="#1271FF"/>
<path d="M92.5992 221C91.4992 221 90.6992 220.1 90.6992 219.1C90.6992 218 91.5992 217.2 92.5992 217.2C93.5992 217.2 94.4992 218.1 94.4992 219.1C94.4992 220.1 93.6992 221 92.5992 221Z" fill="#1271FF"/>
<path d="M1.9 237.5C0.8 237.5 0 236.6 0 235.6C0 234.5 0.9 233.7 1.9 233.7C2.9 233.7 3.8 234.6 3.8 235.6C3.9 236.7 3 237.5 1.9 237.5Z" fill="#1271FF"/>
<path d="M20.0992 237.5C18.9992 237.5 18.1992 236.6 18.1992 235.6C18.1992 234.5 19.0992 233.7 20.0992 233.7C21.0992 233.7 21.9992 234.6 21.9992 235.6C21.9992 236.7 21.0992 237.5 20.0992 237.5Z" fill="#1271FF"/>
<path d="M38.2008 237.5C37.1008 237.5 36.3008 236.6 36.3008 235.6C36.3008 234.5 37.2008 233.7 38.2008 233.7C39.2008 233.7 40.1008 234.6 40.1008 235.6C40.1008 236.7 39.3008 237.5 38.2008 237.5Z" fill="#1271FF"/>
<path d="M56.2984 237.5C55.1984 237.5 54.3984 236.6 54.3984 235.6C54.3984 234.5 55.2984 233.7 56.2984 233.7C57.2984 233.7 58.1984 234.6 58.1984 235.6C58.2984 236.7 57.3984 237.5 56.2984 237.5Z" fill="#1271FF"/>
<path d="M74.5016 237.5C73.4016 237.5 72.6016 236.6 72.6016 235.6C72.6016 234.5 73.5016 233.7 74.5016 233.7C75.6016 233.7 76.4016 234.6 76.4016 235.6C76.4016 236.7 75.5016 237.5 74.5016 237.5Z" fill="#1271FF"/>
<path d="M92.5992 237.5C91.4992 237.5 90.6992 236.6 90.6992 235.6C90.6992 234.5 91.5992 233.7 92.5992 233.7C93.5992 233.7 94.4992 234.6 94.4992 235.6C94.4992 236.7 93.6992 237.5 92.5992 237.5Z" fill="#1271FF"/>
</g>
<g clip-path="url(#clip3)">
<path d="M676.222 67.6153V444.029C676.222 448.302 672.311 451.864 668.044 451.864H68.9548C64.3328 451.864 60.7773 448.302 60.7773 444.029V67.6153C60.7773 63.3419 64.6883 59.7808 68.9548 59.7808H667.689C672.311 59.7808 676.222 63.3419 676.222 67.6153Z" stroke="#1271FF" stroke-width="4" stroke-miterlimit="10"/>
<path d="M62.1953 86.4896V68.3277C62.1953 64.4104 65.3952 61.5615 68.9506 61.5615H667.685C671.596 61.5615 674.44 64.7666 674.44 68.3277V86.4896H62.1953Z" fill="white"/>
<path d="M668.044 62.9858C670.889 62.9858 673.378 65.4786 673.378 68.3275V85.0649H63.9772V68.3275C63.9772 65.1225 66.1105 62.9858 68.9548 62.9858H668.044ZM668.044 59.7808H68.9548C64.3328 59.7808 60.7773 63.698 60.7773 68.3275V88.27H676.222V68.3275C676.222 63.698 672.311 59.7808 668.044 59.7808Z" fill="#C4E7F8"/>
<path d="M83.5332 74.0255C83.5332 76.5183 81.3999 78.655 78.9111 78.655C76.4223 78.655 74.2891 76.5183 74.2891 74.0255C74.2891 71.5327 76.4223 69.396 78.9111 69.396C81.3999 69.396 83.5332 71.5327 83.5332 74.0255Z" fill="#1271FF"/>
<path d="M104.158 74.0255C104.158 76.5183 102.025 78.655 99.5361 78.655C97.0473 78.655 94.9141 76.5183 94.9141 74.0255C94.9141 71.5327 97.0473 69.396 99.5361 69.396C102.38 69.396 104.158 71.5327 104.158 74.0255Z" fill="#1271FF"/>
<path d="M125.131 74.0255C125.131 76.5183 122.998 78.655 120.509 78.655C118.02 78.655 115.887 76.5183 115.887 74.0255C115.887 71.5327 118.02 69.396 120.509 69.396C122.998 69.396 125.131 71.5327 125.131 74.0255Z" fill="#1271FF"/>
<path d="M127.973 157H266.99" stroke="#1271FF" stroke-miterlimit="10" stroke-linecap="round" stroke-linejoin="round"/>
<path d="M172.418 139.55H311.435" stroke="#1271FF" stroke-miterlimit="10" stroke-linecap="round" stroke-linejoin="round"/>
<path d="M529.027 196.885H616.135" stroke="#1271FF" stroke-miterlimit="10" stroke-linecap="round" stroke-linejoin="round"/>
<path d="M557.109 179.436H643.862" stroke="#1271FF" stroke-miterlimit="10" stroke-linecap="round" stroke-linejoin="round"/>
<path d="M84.957 417.676H138.288" stroke="#1271FF" stroke-miterlimit="10" stroke-linecap="round" stroke-linejoin="round"/>
<path d="M102.023 400.583H155.355" stroke="#1271FF" stroke-miterlimit="10" stroke-linecap="round" stroke-linejoin="round"/>
<path d="M264.371 391.128C262.582 391.994 260.247 392.427 257.364 392.427C253.604 392.427 250.648 391.322 248.495 389.112C246.341 386.902 245.265 383.956 245.265 380.276C245.265 376.357 246.472 373.178 248.888 370.74C251.314 368.302 254.459 367.083 258.321 367.083C260.714 367.083 262.73 367.385 264.371 367.989V373.304C262.73 372.324 260.862 371.834 258.766 371.834C256.464 371.834 254.607 372.557 253.194 374.004C251.782 375.451 251.075 377.411 251.075 379.883C251.075 382.253 251.742 384.144 253.075 385.557C254.408 386.958 256.202 387.659 258.458 387.659C260.611 387.659 262.582 387.135 264.371 386.087V391.128ZM278.556 392.427C275.047 392.427 272.187 391.288 269.977 389.009C267.766 386.719 266.661 383.74 266.661 380.071C266.661 376.198 267.783 373.064 270.028 370.672C272.272 368.279 275.246 367.083 278.949 367.083C282.446 367.083 285.272 368.228 287.425 370.518C289.59 372.808 290.672 375.827 290.672 379.576C290.672 383.427 289.55 386.531 287.306 388.89C285.073 391.248 282.156 392.427 278.556 392.427ZM278.795 371.834C276.858 371.834 275.32 372.563 274.181 374.021C273.041 375.468 272.472 377.388 272.472 379.781C272.472 382.208 273.041 384.127 274.181 385.54C275.32 386.953 276.812 387.659 278.658 387.659C280.561 387.659 282.07 386.976 283.187 385.608C284.304 384.23 284.862 382.321 284.862 379.883C284.862 377.343 284.321 375.366 283.238 373.953C282.156 372.54 280.675 371.834 278.795 371.834ZM322.682 392H317.23V377.337C317.23 375.753 317.298 374.004 317.435 372.09H317.298C317.014 373.594 316.757 374.677 316.529 375.337L310.787 392H306.275L300.431 375.508C300.271 375.064 300.015 373.925 299.662 372.09H299.508C299.656 374.506 299.73 376.625 299.73 378.448V392H294.757V367.493H302.84L307.848 382.02C308.246 383.182 308.537 384.349 308.719 385.523H308.822C309.129 384.167 309.454 382.988 309.796 381.985L314.803 367.493H322.682V392ZM335.824 367.493V371.766H333.773V387.728H335.824V392H326.202V387.728H328.253V371.766H326.202V367.493H335.824ZM361.407 392H355.836L345.736 376.602C345.143 375.702 344.733 375.024 344.505 374.568H344.437C344.528 375.434 344.574 376.756 344.574 378.533V392H339.361V367.493H345.309L355.033 382.413C355.477 383.085 355.887 383.751 356.263 384.412H356.332C356.24 383.842 356.195 382.72 356.195 381.045V367.493H361.407V392ZM387.127 390.359C384.735 391.738 381.761 392.427 378.207 392.427C374.264 392.427 371.154 391.339 368.875 389.163C366.608 386.976 365.475 383.968 365.475 380.14C365.475 376.289 366.716 373.15 369.2 370.723C371.684 368.296 374.988 367.083 379.112 367.083C381.71 367.083 384 367.442 385.982 368.16V373.338C384.091 372.244 381.778 371.697 379.044 371.697C376.754 371.697 374.885 372.444 373.438 373.936C372.003 375.417 371.285 377.4 371.285 379.883C371.285 382.401 371.929 384.349 373.216 385.728C374.515 387.107 376.264 387.796 378.463 387.796C379.785 387.796 380.833 387.608 381.607 387.232V382.447H376.703V378.038H387.127V390.359ZM400.44 391.06V385.591C401.432 386.423 402.508 387.05 403.67 387.471C404.833 387.881 406.006 388.086 407.191 388.086C407.886 388.086 408.49 388.024 409.002 387.898C409.527 387.773 409.959 387.602 410.301 387.386C410.654 387.158 410.917 386.896 411.087 386.6C411.258 386.292 411.344 385.962 411.344 385.608C411.344 385.13 411.207 384.703 410.934 384.327C410.66 383.951 410.284 383.603 409.806 383.284C409.339 382.965 408.78 382.658 408.131 382.361C407.481 382.065 406.781 381.763 406.029 381.456C404.115 380.658 402.685 379.684 401.739 378.533C400.805 377.382 400.338 375.993 400.338 374.363C400.338 373.087 400.594 371.993 401.107 371.082C401.62 370.159 402.315 369.402 403.192 368.809C404.081 368.217 405.106 367.784 406.268 367.51C407.43 367.225 408.661 367.083 409.959 367.083C411.236 367.083 412.363 367.163 413.343 367.322C414.334 367.47 415.246 367.704 416.078 368.023V373.133C415.667 372.848 415.217 372.597 414.728 372.381C414.249 372.164 413.753 371.988 413.241 371.851C412.728 371.703 412.215 371.595 411.703 371.526C411.201 371.458 410.723 371.424 410.267 371.424C409.64 371.424 409.071 371.486 408.558 371.612C408.045 371.726 407.612 371.891 407.259 372.107C406.906 372.324 406.633 372.586 406.439 372.894C406.245 373.19 406.148 373.526 406.148 373.902C406.148 374.312 406.257 374.682 406.473 375.013C406.69 375.332 406.997 375.639 407.396 375.936C407.795 376.22 408.279 376.505 408.849 376.79C409.418 377.063 410.062 377.348 410.78 377.645C411.76 378.055 412.637 378.493 413.412 378.96C414.198 379.416 414.87 379.935 415.428 380.516C415.986 381.097 416.414 381.763 416.71 382.515C417.006 383.256 417.154 384.122 417.154 385.113C417.154 386.48 416.892 387.631 416.368 388.565C415.855 389.488 415.155 390.24 414.266 390.821C413.377 391.39 412.341 391.801 411.156 392.051C409.982 392.302 408.74 392.427 407.43 392.427C406.086 392.427 404.804 392.313 403.585 392.085C402.377 391.858 401.329 391.516 400.44 391.06ZM431.544 392.427C428.035 392.427 425.175 391.288 422.965 389.009C420.755 386.719 419.649 383.74 419.649 380.071C419.649 376.198 420.772 373.064 423.016 370.672C425.261 368.279 428.234 367.083 431.937 367.083C435.435 367.083 438.26 368.228 440.414 370.518C442.578 372.808 443.661 375.827 443.661 379.576C443.661 383.427 442.538 386.531 440.294 388.89C438.061 391.248 435.144 392.427 431.544 392.427ZM431.783 371.834C429.846 371.834 428.308 372.563 427.169 374.021C426.03 375.468 425.46 377.388 425.46 379.781C425.46 382.208 426.03 384.127 427.169 385.54C428.308 386.953 429.801 387.659 431.646 387.659C433.549 387.659 435.059 386.976 436.175 385.608C437.292 384.23 437.85 382.321 437.85 379.883C437.85 377.343 437.309 375.366 436.227 373.953C435.144 372.54 433.663 371.834 431.783 371.834ZM458.102 392.427C454.592 392.427 451.733 391.288 449.522 389.009C447.312 386.719 446.207 383.74 446.207 380.071C446.207 376.198 447.329 373.064 449.574 370.672C451.818 368.279 454.792 367.083 458.495 367.083C461.992 367.083 464.818 368.228 466.971 370.518C469.136 372.808 470.218 375.827 470.218 379.576C470.218 383.427 469.096 386.531 466.852 388.89C464.618 391.248 461.702 392.427 458.102 392.427ZM458.341 371.834C456.404 371.834 454.866 372.563 453.727 374.021C452.587 375.468 452.018 377.388 452.018 379.781C452.018 382.208 452.587 384.127 453.727 385.54C454.866 386.953 456.358 387.659 458.204 387.659C460.107 387.659 461.616 386.976 462.733 385.608C463.849 384.23 464.408 382.321 464.408 379.883C464.408 377.343 463.867 375.366 462.784 373.953C461.702 372.54 460.221 371.834 458.341 371.834ZM496.349 392H490.777L480.677 376.602C480.085 375.702 479.675 375.024 479.447 374.568H479.378C479.47 375.434 479.515 376.756 479.515 378.533V392H474.303V367.493H480.25L489.974 382.413C490.418 383.085 490.829 383.751 491.205 384.412H491.273C491.182 383.842 491.136 382.72 491.136 381.045V367.493H496.349V392ZM503.834 392.427C502.945 392.427 502.205 392.154 501.612 391.607C501.02 391.06 500.724 390.388 500.724 389.59C500.724 388.77 501.026 388.098 501.629 387.574C502.245 387.05 503.008 386.788 503.919 386.788C504.842 386.788 505.594 387.055 506.175 387.591C506.768 388.115 507.064 388.781 507.064 389.59C507.064 390.422 506.762 391.106 506.158 391.641C505.566 392.165 504.791 392.427 503.834 392.427ZM513.336 392.427C512.447 392.427 511.707 392.154 511.114 391.607C510.522 391.06 510.226 390.388 510.226 389.59C510.226 388.77 510.528 388.098 511.131 387.574C511.747 387.05 512.51 386.788 513.421 386.788C514.344 386.788 515.096 387.055 515.677 387.591C516.27 388.115 516.566 388.781 516.566 389.59C516.566 390.422 516.264 391.106 515.66 391.641C515.068 392.165 514.293 392.427 513.336 392.427ZM522.838 392.427C521.949 392.427 521.209 392.154 520.616 391.607C520.024 391.06 519.728 390.388 519.728 389.59C519.728 388.77 520.029 388.098 520.633 387.574C521.249 387.05 522.012 386.788 522.923 386.788C523.846 386.788 524.598 387.055 525.179 387.591C525.772 388.115 526.068 388.781 526.068 389.59C526.068 390.422 525.766 391.106 525.162 391.641C524.57 392.165 523.795 392.427 522.838 392.427Z" fill="url(#paint0_radial)"/>
</g>
<path d="M426.954 326.369H309.042C301.896 326.369 297.348 318.539 300.921 312.34L325.283 270.578L332.43 258.507L338.276 248.719L360.04 211.199C363.613 205 372.383 205 376.281 211.199L435.399 312.013C438.973 318.539 434.425 326.369 426.954 326.369Z" fill="white" stroke="#FFA012" stroke-miterlimit="10"/>
<path d="M377.582 302.551C377.582 307.772 373.359 312.013 368.162 312.013C362.965 312.013 358.742 307.772 358.742 302.551C358.742 297.331 362.965 293.09 368.162 293.09C373.359 293.09 377.582 297.331 377.582 302.551Z" fill="#FFA012"/>
<path d="M377.582 254.266C377.582 259.486 373.359 285.26 368.162 285.26C362.965 285.26 358.742 259.486 358.742 254.266C358.742 249.046 362.965 244.804 368.162 244.804C373.359 244.804 377.582 249.046 377.582 254.266Z" fill="#FFA012"/>
<path d="M85.9 273L69.4 289.3L53 273L36.5 289.3L20.1 273L7 285.9V289.6L20.1 276.6L36.5 292.9L53 276.6L69.4 292.9L85.9 276.6L100.4 291L102.2 289.2L85.9 273Z" fill="#FF9D00"/>
<defs>
<radialGradient id="paint0_radial" cx="0" cy="0" r="1" gradientUnits="userSpaceOnUse" gradientTransform="translate(386 354) scale(473.996 78.443)">
<stop stop-color="#565656" stop-opacity="0.988"/>
<stop offset="1" stop-color="#2B2B2B"/>
</radialGradient>
<clipPath id="clip0">
<rect x="11" y="374" width="126.5" height="126.5" fill="white"/>
</clipPath>
<clipPath id="clip1">
<rect x="469" y="468" width="130.8" height="3.9" fill="white"/>
</clipPath>
<clipPath id="clip2">
<rect y="151" width="94.5" height="105.4" fill="white"/>
</clipPath>
<clipPath id="clip3">
<rect x="59" y="58" width="619" height="396" fill="white"/>
</clipPath>
</defs>
</svg>
