<svg width="330" height="230" viewBox="0 0 330 230" fill="none" xmlns="http://www.w3.org/2000/svg">
<path d="M194.848 129.141C186.303 134.064 175.683 136.526 162.988 136.526C148.909 136.526 137.801 132.64 129.663 124.868C121.565 117.056 117.517 106.313 117.517 92.6416C117.517 78.8883 121.952 67.6782 130.822 59.0112C139.693 50.3442 151.493 46.0107 166.223 46.0107C175.5 46.0107 183.679 47.2925 190.759 49.856V68.3496C184.004 64.4434 175.744 62.4902 165.979 62.4902C157.8 62.4902 151.127 65.1554 145.959 70.4858C140.832 75.7756 138.269 82.8556 138.269 91.7261C138.269 100.719 140.568 107.677 145.166 112.6C149.804 117.524 156.05 119.985 163.903 119.985C168.623 119.985 172.367 119.314 175.134 117.971V100.881H157.617V85.1343H194.848V129.141Z" fill="#1271FF"/>
<path d="M195 19L195 230" stroke="#1271FF"/>
<path d="M242 19L242 229" stroke="#1271FF"/>
<path d="M0 182L330 182" stroke="#1271FF"/>
<path d="M0 197L330 197" stroke="#1271FF"/>
<path d="M0 137L330 137" stroke="#1271FF"/>
<path d="M0 152L330 152" stroke="#1271FF"/>
<path d="M0 167L330 167" stroke="#1271FF"/>
</svg>
