<svg width="184" height="45" viewBox="0 0 184 45" fill="none" xmlns="http://www.w3.org/2000/svg">
<g filter="url(#filter0_d)">
<path d="M141.182 0H4V36.2374H141.182V0Z" fill="#4AA22C"/>
<path d="M34.729 14.2939H36.9688C38.0215 14.2939 38.7806 14.4515 39.2461 14.7666C39.7152 15.0781 39.9497 15.5687 39.9497 16.2383C39.9497 16.7038 39.8226 17.0887 39.5684 17.3931C39.3141 17.6938 38.9435 17.889 38.4565 17.9785V18.0322C39.0617 18.1361 39.5057 18.3455 39.7886 18.6606C40.075 18.9757 40.2183 19.3929 40.2183 19.9121C40.2183 20.6139 39.9784 21.1618 39.4985 21.5557C39.0187 21.9495 38.3491 22.1465 37.4897 22.1465H34.729V14.2939ZM35.7173 17.6348H37.1675C37.7834 17.6348 38.231 17.5363 38.5103 17.3394C38.7896 17.1424 38.9292 16.813 38.9292 16.3511C38.9292 15.9214 38.7752 15.6117 38.4673 15.4219C38.1629 15.2321 37.6795 15.1372 37.0171 15.1372H35.7173V17.6348ZM35.7173 18.4619V21.3086H37.3018C37.932 21.3086 38.3993 21.1868 38.7036 20.9434C39.008 20.6999 39.1602 20.3311 39.1602 19.8369C39.1602 19.3678 38.999 19.0223 38.6768 18.8003C38.3545 18.5747 37.8711 18.4619 37.2266 18.4619H35.7173ZM47.856 14.2939V19.375C47.856 20.2702 47.5856 20.9738 47.0449 21.4858C46.5042 21.9979 45.7541 22.2539 44.7944 22.2539C43.8455 22.2539 43.1097 21.9961 42.5869 21.4805C42.0641 20.9613 41.8027 20.2523 41.8027 19.3535V14.2939H42.7964V19.3857C42.7964 20.0267 42.9665 20.5226 43.3066 20.8735C43.6504 21.2244 44.166 21.3999 44.8535 21.3999C45.5016 21.3999 45.9993 21.2262 46.3467 20.8789C46.6976 20.5316 46.873 20.0303 46.873 19.375V14.2939H47.856ZM52.416 22.1465H51.4224V15.1641H48.9678V14.2939H54.8545V15.1641H52.416V22.1465ZM58.6465 22.1465H57.6528V15.1641H55.1982V14.2939H61.085V15.1641H58.6465V22.1465ZM69.0288 18.2095C69.0288 19.4663 68.7101 20.4546 68.0728 21.1743C67.439 21.894 66.5509 22.2539 65.4087 22.2539C64.2521 22.2539 63.3569 21.9012 62.7231 21.1958C62.0929 20.4868 61.7778 19.4878 61.7778 18.1987C61.7778 16.9204 62.0911 15.9303 62.7178 15.2285C63.348 14.5231 64.2485 14.1704 65.4194 14.1704C66.5581 14.1704 67.4443 14.5285 68.0781 15.2446C68.7119 15.9572 69.0288 16.9455 69.0288 18.2095ZM62.8198 18.2095C62.8198 19.2479 63.04 20.0392 63.4805 20.5835C63.9209 21.1278 64.5636 21.3999 65.4087 21.3999C66.2502 21.3999 66.8893 21.1313 67.3262 20.5942C67.763 20.0571 67.9814 19.2622 67.9814 18.2095C67.9814 17.1603 67.7648 16.3708 67.3315 15.8408C66.8983 15.3073 66.2609 15.0405 65.4194 15.0405C64.5672 15.0405 63.9209 15.3109 63.4805 15.8516C63.04 16.3887 62.8198 17.1746 62.8198 18.2095ZM76.9941 22.1465H75.8394L71.6338 15.626H71.5908L71.6177 16.061C71.6606 16.7127 71.6821 17.2785 71.6821 17.7583V22.1465H70.769V14.2939H71.9131L72.1548 14.6753L74.7329 18.6606L76.1025 20.793H76.1455C76.1383 20.707 76.124 20.4009 76.1025 19.8745C76.0811 19.3446 76.0703 18.9614 76.0703 18.7251V14.2939H76.9941V22.1465ZM84.4707 22.1465H83.4771V15.1641H81.0225V14.2939H86.9092V15.1641H84.4707V22.1465ZM92.4951 22.1465H88.1069V14.2939H92.4951V15.1641H89.0952V17.6133H92.2964V18.4727H89.0952V21.2764H92.4951V22.1465ZM99.5635 22.1465H98.4409L96.3623 18.7358L94.2515 22.1465H93.2041L95.8145 18.0537L93.3706 14.2939H94.4717L96.3945 17.3716L98.3335 14.2939H99.3755L96.9478 18.0322L99.5635 22.1465ZM103.162 22.1465H102.168V15.1641H99.7139V14.2939H105.601V15.1641H103.162V22.1465Z" fill="white"/>
<path d="M179.001 0H141.184V36.2374H179.001V0Z" fill="#4AA22C"/>
<path d="M165.737 16.2229L160.464 21.3765L155.191 16.2229L156.422 15.0205L160.464 18.9718L164.506 15.0205L165.737 16.2229Z" fill="#FCFCFC"/>
<g opacity="0.5">
<path opacity="0.5" d="M141.925 0H141.184V36.2374H141.925V0Z" fill="white"/>
</g>
</g>
<defs>
<filter id="filter0_d" x="0" y="0" width="183.001" height="44.2374" filterUnits="userSpaceOnUse" color-interpolation-filters="sRGB">
<feFlood flood-opacity="0" result="BackgroundImageFix"/>
<feColorMatrix in="SourceAlpha" type="matrix" values="0 0 0 0 0 0 0 0 0 0 0 0 0 0 0 0 0 0 127 0"/>
<feOffset dy="4"/>
<feGaussianBlur stdDeviation="2"/>
<feColorMatrix type="matrix" values="0 0 0 0 0 0 0 0 0 0 0 0 0 0 0 0 0 0 0.15 0"/>
<feBlend mode="normal" in2="BackgroundImageFix" result="effect1_dropShadow"/>
<feBlend mode="normal" in="SourceGraphic" in2="effect1_dropShadow" result="shape"/>
</filter>
</defs>
</svg>
